<?xml version="1.0" encoding="utf-8"?>
<!-- Generator: Adobe Illustrator 23.0.4, SVG Export Plug-In . SVG Version: 6.00 Build 0)  -->
<svg version="1.1" id="Layer_1" xmlns="http://www.w3.org/2000/svg" xmlns:xlink="http://www.w3.org/1999/xlink" x="0px" y="0px"
	 viewBox="0 0 920.6 846.1" style="enable-background:new 0 0 920.6 846.1;" xml:space="preserve">
<style type="text/css">
	.st0{fill:#F1BDBF;}
	.st1{fill:#E39B9B;}
</style>
<g id="Group_476" transform="translate(-458.026 1233.126) rotate(-64)">
	<path id="Path_308" class="st0" d="M602.9,262.3c41.7-123.2,156.6-91.2,238.6-56.9c111.5,46.6,135.5-6.1,206.2-80.9
		C1167.1-1.7,1265.9,4.9,1341.8,67.4c75.9,62.5,58.4,181.8,87.2,247.2c29.7,67.7,70.5,88.9,106.2,104.5c35.6,16,66,26.3,74.3,80.4
		c8.2,52.9-7.3,133.9-36,199.2c-28.7,65.8-70.8,115.8-116.6,118.7c-66,4.2-111.4-82.3-163.6-165.8c-52.1-84.6-110.8-166.3-201.6-179
		c-106.7-15.5-206,27.3-281.4,17.2C696.1,474.4,561,385.9,602.9,262.3z"/>
	<path id="Path_309" class="st1" d="M678.9,223.3c50.1-27.6,120.9-4.2,195.3,23.3c111.2,41.2,162.1-59,199.3-89.3
		c119.4-97.3,192.6-88.8,260.3-37.9c53.2,40.1,46.1,143.9,64.5,197.6c25.7,74.8,46.8,113.5,107.6,132.2
		c33.4,10.3,61.1,19.7,68.7,60.3c7.6,39.6,2,107.1-24.6,156.1c-26.6,49.3-65.5,86.8-107.9,89c-61.1,3.1-121.3-122.3-169.5-184.9
		c-48.2-63.5-102.5-124.7-186.6-134.2c-98.7-11.6-162.7,27-267.2,24.4c-63-1.6-128.3-41.5-160.4-83.7
		C615.9,319.8,620.3,256.7,678.9,223.3z"/>
</g>
</svg>
