<svg xmlns="http://www.w3.org/2000/svg" viewBox="0 0 738.08 545.46"><g data-name="Layer 2"><g data-name="Layer 1"><g data-name="Group 551"><g data-name="Group 554"><path data-name="Path 350" d="M733.43 296.62C719.89 346.5 679.8 394.73 640 440.08c-40.5 44.38-80.68 85.89-111.45 100-34.25 16.23-52.41-7.15-77-31.79-23.89-24.65-54.2-50.55-96.95-39.44-58.71 14.39-54.95 78.21-98.36 75.75-30-1.29-69.87-36.49-114.64-73.86-43.89-38.49-92.69-79.15-120.87-117.36-37.87-47.92-22.25-111.3 33.76-169.5 53.81-56.64 148-108.09 216.71-96.13 116.13 16 135.94 163.44 202.05 152.3 55.9-7.38 75.38-109 147.7-113.15 35.47-2.07 71.45 22.5 93.12 55.69C736.18 216 744 258.08 733.43 296.62z" fill="#ffc85a"/></g><g data-name="Group 549"><path data-name="Path 350-2" d="M693.43 299c-12 44.05-47.63 86.64-82.95 126.68-36 39.2-71.65 75.85-99 88.3-30.43 14.34-46.56-6.31-68.39-28.07-21.2-21.77-48.09-44.64-86.09-34.83-52.14 12.7-48.81 69.06-87.36 66.89-26.61-1.14-62-32.22-101.81-65.22-39-34-82.36-69.9-107.39-103.64-33.63-42.31-19.76-98.29 30-149.68 47.8-50 131.48-95.45 192.48-84.89C386 128.64 403.63 258.86 462.34 249c49.66-6.52 66.95-96.23 131.18-99.92 31.48-1.8 63.48 19.92 82.7 49.21C695.87 227.82 702.79 265 693.43 299z" fill="#ffd684"/></g><path data-name="Path 353" d="M635.74 301v-6.2a3.53 3.53 0 0 0-3.53-3.53h-6a3.53 3.53 0 0 1-3.46-2.87c0-.21-.08-.42-.13-.62a3.55 3.55 0 0 1 2.08-4l5.55-2.33a3.54 3.54 0 0 0 1.89-4.62l-2.42-5.74a3.53 3.53 0 0 0-4.62-1.89l-5.55 2.34a3.56 3.56 0 0 1-4.32-1.31v-.05a3.54 3.54 0 0 1 .41-4.5l4.26-4.26a3.52 3.52 0 0 0 0-5l-4.4-4.41a3.54 3.54 0 0 0-5 0l-4.26 4.26a3.53 3.53 0 0 1-4.48.42l-.52-.35a3.54 3.54 0 0 1-1.35-4.29l2.28-5.58a3.54 3.54 0 0 0-1.94-4.6l-5.77-2.35a3.53 3.53 0 0 0-4.6 1.94l-2.32 5.54a3.54 3.54 0 0 1-4 2.12h-.06a3.55 3.55 0 0 1-2.89-3.47v-6a3.53 3.53 0 0 0-3.53-3.53h-6.23a3.53 3.53 0 0 0-3.53 3.53v6a3.54 3.54 0 0 1-2.87 3.47l-.62.12a3.53 3.53 0 0 1-4-2.08l-2.33-5.55a3.52 3.52 0 0 0-4.62-1.88l-5.75 2.41a3.54 3.54 0 0 0-1.89 4.63l2.34 5.55a3.55 3.55 0 0 1-1.31 4.31 3.54 3.54 0 0 1-4.5-.42l-4.28-4.21a3.54 3.54 0 0 0-5 0l-4.41 4.41a3.52 3.52 0 0 0 0 5l4.26 4.26a3.54 3.54 0 0 1 .42 4.49l-.35.52a3.54 3.54 0 0 1-4.29 1.35l-5.58-2.28a3.53 3.53 0 0 0-4.6 1.94l-2.35 5.77a3.53 3.53 0 0 0 1.93 4.6l5.57 2.27a3.55 3.55 0 0 1 2.13 4v.06a3.53 3.53 0 0 1-3.46 2.89h-6a3.53 3.53 0 0 0-3.53 3.53V301a3.53 3.53 0 0 0 3.53 3.53h6a3.54 3.54 0 0 1 3.46 2.88c0 .2.08.41.13.62a3.53 3.53 0 0 1-2.09 4l-5.55 2.34a3.52 3.52 0 0 0-1.88 4.62l2.42 5.74a3.53 3.53 0 0 0 4.62 1.89l5.55-2.34a3.54 3.54 0 0 1 4.31 1.31 3.54 3.54 0 0 1-.41 4.5l-4.26 4.26a3.52 3.52 0 0 0 0 5l4.4 4.41a3.52 3.52 0 0 0 5 0l4.27-4.26a3.53 3.53 0 0 1 4.48-.42l.52.35a3.54 3.54 0 0 1 1.35 4.29l-2.28 5.58a3.53 3.53 0 0 0 1.94 4.6l5.77 2.35a3.53 3.53 0 0 0 4.6-1.93l2.27-5.57a3.55 3.55 0 0 1 4-2.13h.06a3.55 3.55 0 0 1 2.89 3.47v6a3.53 3.53 0 0 0 3.53 3.53h6.23a3.53 3.53 0 0 0 3.53-3.53v-6a3.53 3.53 0 0 1 2.87-3.46l.62-.13a3.53 3.53 0 0 1 4 2.08l2.33 5.55a3.54 3.54 0 0 0 4.62 1.89l5.75-2.42a3.52 3.52 0 0 0 1.88-4.62l-2.33-5.55a3.53 3.53 0 0 1 1.31-4.32h.05a3.55 3.55 0 0 1 4.5.41l4.26 4.26a3.52 3.52 0 0 0 5 0l4.41-4.41a3.54 3.54 0 0 0 0-5l-4.27-4.26a3.53 3.53 0 0 1-.41-4.48l.35-.53a3.53 3.53 0 0 1 4.29-1.34l5.57 2.27a3.52 3.52 0 0 0 4.6-1.93l2.36-5.77a3.53 3.53 0 0 0-1.94-4.6l-5.57-2.28a3.54 3.54 0 0 1-2.13-4v-.06a3.54 3.54 0 0 1 3.47-2.89h6a3.53 3.53 0 0 0 3.53-3.53zm-61.19 27.8a30.89 30.89 0 1 1 30.3-31.47v1.17a30.89 30.89 0 0 1-30.3 30.3z"/><path data-name="Path 354" d="M52.84 427.56l245.47-242.9L574 301.91l112.79-117.25" fill="none" stroke="#f06149" stroke-miterlimit="10" stroke-width="15"/><path data-name="Path 355" d="M706.19 202.87l-42.25-38.12 54.14-17.54z" fill="#ef654f"/><path data-name="Path 352" d="M483 194v-18.65a10.55 10.55 0 0 0-10.55-10.55h-18a10.57 10.57 0 0 1-10.36-8.59c-.12-.62-.24-1.23-.37-1.85a10.59 10.59 0 0 1 6.22-11.92l16.59-7a10.56 10.56 0 0 0 5.64-13.82l-7.23-17.17a10.54 10.54 0 0 0-13.81-5.63l-16.6 7a10.59 10.59 0 0 1-12.9-3.92l-.1-.15a10.6 10.6 0 0 1 1.23-13.44l12.73-12.73a10.55 10.55 0 0 0 0-14.92L422.28 47.5a10.55 10.55 0 0 0-14.92 0l-12.72 12.73a10.56 10.56 0 0 1-13.4 1.25l-1.57-1a10.56 10.56 0 0 1-4-12.82l6.8-16.67a10.55 10.55 0 0 0-5.78-13.75l-17.25-7a10.54 10.54 0 0 0-13.75 5.78l-6.79 16.65A10.6 10.6 0 0 1 327 39h-.18a10.59 10.59 0 0 1-8.64-10.37v-18A10.55 10.55 0 0 0 307.62 0H289a10.55 10.55 0 0 0-10.55 10.55v18a10.57 10.57 0 0 1-8.59 10.36l-1.85.37a10.57 10.57 0 0 1-11.91-6.22l-7-16.59a10.56 10.56 0 0 0-13.82-5.64l-17.17 7.23a10.54 10.54 0 0 0-5.63 13.81l7 16.6a10.59 10.59 0 0 1-3.92 12.9l-.15.1A10.59 10.59 0 0 1 202 60.24L189.24 47.5a10.55 10.55 0 0 0-14.92 0l-13.18 13.17a10.55 10.55 0 0 0 0 14.92l12.74 12.74a10.57 10.57 0 0 1 1.24 13.4c-.35.52-.7 1-1 1.57a10.57 10.57 0 0 1-12.82 4l-16.67-6.8a10.54 10.54 0 0 0-13.75 5.79l-7 17.25a10.55 10.55 0 0 0 5.78 13.75l16.66 6.79a10.6 10.6 0 0 1 6.27 11.92v.18a10.57 10.57 0 0 1-10.37 8.63h-18a10.56 10.56 0 0 0-10.55 10.55V194a10.55 10.55 0 0 0 10.55 10.55h18a10.56 10.56 0 0 1 10.36 8.59c.12.62.25 1.23.37 1.85a10.56 10.56 0 0 1-6.22 11.92l-16.59 7a10.55 10.55 0 0 0-5.63 13.82l7.22 17.17a10.55 10.55 0 0 0 13.82 5.63l16.6-7a10.61 10.61 0 0 1 12.9 3.92l.1.15a10.6 10.6 0 0 1-1.27 13.4l-12.73 12.73a10.55 10.55 0 0 0 0 14.92l13.17 13.17a10.55 10.55 0 0 0 14.92 0L202 309.09a10.56 10.56 0 0 1 13.4-1.25l1.57 1.05a10.55 10.55 0 0 1 4 12.81l-6.8 16.67a10.55 10.55 0 0 0 5.83 13.76l17.25 7a10.54 10.54 0 0 0 13.74-5.79l6.8-16.65a10.6 10.6 0 0 1 11.88-6.35h.18a10.59 10.59 0 0 1 8.64 10.37v18A10.55 10.55 0 0 0 289 369.32h18.63a10.56 10.56 0 0 0 10.55-10.55v-18a10.56 10.56 0 0 1 8.58-10.36l1.85-.37a10.56 10.56 0 0 1 11.92 6.22l7 16.59a10.54 10.54 0 0 0 13.81 5.63l17.17-7.22a10.56 10.56 0 0 0 5.64-13.81l-7-16.6a10.61 10.61 0 0 1 3.92-12.9l.15-.1a10.59 10.59 0 0 1 13.44 1.23l12.73 12.73a10.55 10.55 0 0 0 14.92 0l13.17-13.17a10.55 10.55 0 0 0 0-14.92L422.73 281a10.56 10.56 0 0 1-1.25-13.4l1-1.57a10.56 10.56 0 0 1 12.82-4l16.7 6.77a10.55 10.55 0 0 0 13.77-5.8l7-17.25A10.53 10.53 0 0 0 467 232l-16.65-6.79a10.6 10.6 0 0 1-6.35-11.88v-.18a10.6 10.6 0 0 1 10.38-8.63h18A10.55 10.55 0 0 0 483 194zm-182.9 83a92.32 92.32 0 0 1-94.1-90.59v-3.5c.91-49.37 41.2-89.65 90.56-90.56a92.34 92.34 0 0 1 94.07 90.56v3.5c-.93 49.36-41.21 89.65-90.57 90.59z" fill="#0080ee"/></g></g></g></svg>