<svg xmlns="http://www.w3.org/2000/svg" xmlns:xlink="http://www.w3.org/1999/xlink" width="1754.531" height="1594.52" viewBox="0 0 1754.531 1594.52">
  <defs>
    <linearGradient id="linear-gradient" y1="0.5" x2="1" y2="0.5" gradientUnits="objectBoundingBox">
      <stop offset="0.011" stop-color="#1e95fa"/>
      <stop offset="1" stop-color="#1e42fa"/>
    </linearGradient>
  </defs>
  <g id="Group_547" data-name="Group 547" transform="translate(82.926 -511.412)">
    <path id="Path_315" data-name="Path 315" d="M493.388,789.794C560.4,607.806,692.852,655.963,763.074,656.452s132.247-25.324,245.79-135.912c191.581-186.6,350.22-176.873,472.073-84.49s93.708,268.7,140.069,365.245c47.672,100.02,113.237,131.341,170.439,154.413,57.165,23.583,105.968,38.919,119.256,118.774,13.115,78.144-11.671,197.88-57.767,294.324-46.152,97.213-113.614,171.131-187.136,175.354-105.936,6.174-178.889-121.6-262.583-244.975-83.571-125.072-177.88-245.752-323.681-264.539-171.3-22.893-273.469,22.8-370.426,20.518C540.833,1051.2,426.174,972.323,493.388,789.794Z" transform="translate(0 0)" fill="url(#linear-gradient)"/>
    <path id="Path_316" data-name="Path 316" d="M602.9,727.021c81.624-41.918,91.863-32.368,205.369-31.039s179.589-92.157,240.322-138.22c194.725-147.69,314.1-134.864,424.413-57.554,86.779,60.815,75.12,218.392,105.172,299.988,41.829,113.577,76.282,172.309,175.522,200.745,54.428,15.6,99.586,29.974,112.073,91.473,12.325,60.184,3.277,162.639-40.042,236.916-43.372,74.866-106.77,131.8-175.865,135.048-99.555,4.756-197.709-185.713-276.362-280.733-78.537-96.325-167.167-189.266-304.186-203.733-160.984-17.632-195.573-2.112-387.662,11.177S507.257,777.723,602.9,727.021Z" transform="translate(0.88 1.069)" fill="#1e95fa"/>
  </g>
</svg>
