<?xml version="1.0" encoding="utf-8"?>
<!-- Generator: Adobe Illustrator 23.0.4, SVG Export Plug-In . SVG Version: 6.00 Build 0)  -->
<svg version="1.1" id="Layer_1" xmlns="http://www.w3.org/2000/svg" xmlns:xlink="http://www.w3.org/1999/xlink" x="0px" y="0px"
	 viewBox="0 0 911.2 828.1" style="enable-background:new 0 0 911.2 828.1;" xml:space="preserve">
<style type="text/css">
	.st0{fill:url(#Path_315_2_);}
	.st1{fill:#1E95FA;}
</style>
<g id="Group_547_1_" transform="translate(-101.12 -511.412) rotate(20)">

		<linearGradient id="Path_315_2_" gradientUnits="userSpaceOnUse" x1="813.3282" y1="783.8146" x2="814.3282" y2="783.8146" gradientTransform="matrix(732.3658 -217.0103 -266.559 -596.2321 -386281.75 644465.5625)">
		<stop  offset="1.100000e-02" style="stop-color:#1E95FA"/>
		<stop  offset="1" style="stop-color:#1E42FA"/>
	</linearGradient>
	<path id="Path_315_1_" class="st0" d="M449.8,538.4c36.3-98.5,107.9-72.4,145.9-72.2c38,0.3,71.6-13.7,133-73.5
		c103.7-101,189.5-95.7,255.4-45.7c65.9,50,50.7,145.4,75.8,197.6c25.8,54.1,61.3,71.1,92.2,83.6c30.9,12.8,57.3,21.1,64.5,64.3
		c7.1,42.3-6.3,107.1-31.3,159.3c-25,52.6-61.5,92.6-101.3,94.9c-57.3,3.3-96.8-65.8-142.1-132.6c-45.2-67.7-96.2-133-175.1-143.1
		c-92.7-12.4-148,12.3-200.4,11.1C475.5,679.8,413.4,637.2,449.8,538.4z"/>
	<path id="Path_316_1_" class="st1" d="M509.6,505c44.2-22.7,49.7-17.5,111.1-16.8s97.2-49.9,130-74.8c105.4-79.9,170-73,229.6-31.1
		c47,32.9,40.6,118.2,56.9,162.3c22.6,61.5,41.3,93.2,95,108.6c29.5,8.4,53.9,16.2,60.6,49.5c6.7,32.6,1.8,88-21.7,128.2
		c-23.5,40.5-57.8,71.3-95.2,73.1c-53.9,2.6-107-100.5-149.5-151.9C884,700,836.1,649.7,761.9,641.8c-87.1-9.5-105.8-1.1-209.8,6
		C448.2,655.1,457.8,532.4,509.6,505z"/>
</g>
</svg>
