<svg xmlns="http://www.w3.org/2000/svg" viewBox="0 0 664.4 1044.1"><linearGradient id="a" gradientUnits="userSpaceOnUse" x1="-1538.7954" y1="-665.2431" x2="-520.2733" y2="-665.2431" gradientTransform="rotate(74.639 -1157.9809 762.8188)"><stop offset=".0113" stop-color="#1e95fa"/><stop offset="1" stop-color="#1e42fa"/></linearGradient><path d="M262.6 27.9c40.5 39.1 41.3 111.7 26.6 188.5-11.9 76.2-39.3 156.6 8.7 198.8 21.4 18.3 45.2 18.3 73.8 18.7 28.8.4 62.5 1.2 108.4 20.3 122.7 51.4 231.3 183 163.3 259.9-28.6 32.7-77.2 43.9-126.4 56-49.7 12.2-100 25.2-142.2 63.6-43.8 39.6-50 79.2-53.3 113.2-3.5 34-4.1 62.4-42.8 80.7-37.8 18-102.3 21.4-158.1 10.1-56.2-11.2-103.8-37.2-116.8-76.1-18.8-56.2 35.4-113.3 85.8-175.5 51.2-62.4 98.6-129.9 86.7-210.9-13.7-95.2-78.5-82.8-102.2-209.8-5.2-23.6-14.1-80-12.5-141.9 1.3-61.8 13.2-129 42.8-172.7C143-5.6 214.1-17.6 262.6 27.9z" fill="url(#a)"/><path d="M244.8 58.3C278 96.4 282 163.8 274 234.5c-5.8 70.2-23.6 143.6 15.7 184.9 17.4 18 35.9 19 58.2 20.7 22.4 1.6 48.6 3.9 85.2 23.7 97.7 53.2 188 180.3 138.6 248.6-20.8 29.1-58 37.3-95.8 46.3-38.1 9.1-76.6 18.9-107.7 52.7-32.3 34.8-35.3 71.3-36.4 102.7-1.2 31.4-.4 57.7-29.6 73-28.6 15-78.6 15.2-122.5 2.2-44.2-12.9-82.3-39.2-94.2-75.9-17.1-52.9 22.4-103.4 58.8-158.9 37-55.6 70.9-116.2 57.9-191.9-14.9-89.1-64.7-80.4-88.8-199.3-5.1-22.1-14.6-74.9-16.1-132.3-1.8-57.3 4.4-119.1 25.5-158.4 27.6-50.8 82.3-58.7 122-14.3z" fill="#1e95fa"/></svg>