<?xml version="1.0" encoding="utf-8"?>
<!-- Generator: Adobe Illustrator 23.0.4, SVG Export Plug-In . SVG Version: 6.00 Build 0)  -->
<svg version="1.1" id="Layer_1" xmlns="http://www.w3.org/2000/svg" xmlns:xlink="http://www.w3.org/1999/xlink" x="0px" y="0px"
	 viewBox="0 0 1046.3 750" style="enable-background:new 0 0 1046.3 750;" xml:space="preserve">
<style type="text/css">
	.st0{fill:url(#SVGID_1_);}
	.st1{fill:#1E95FA;}
</style>
<g>
	
		<linearGradient id="SVGID_1_" gradientUnits="userSpaceOnUse" x1="-2.7128" y1="318.1948" x2="1050.3203" y2="318.1948" gradientTransform="matrix(0.9995 3.260180e-02 -3.260180e-02 0.9995 11.3859 29.9227)">
		<stop  offset="1.125801e-02" style="stop-color:#1E95FA"/>
		<stop  offset="1" style="stop-color:#1E42FA"/>
	</linearGradient>
	<path class="st0" d="M52.9,208.5c51-28,123-6.6,194.3,31.4c71.6,35.1,142.6,86.8,198.9,52.3c24.6-15.5,31.9-39,41.1-67.2
		c9.2-28.4,20.3-61.3,53.3-100.8C628.8,18.8,792-48.1,847.1,42.6c23.6,38.3,19.7,89.7,16.6,142C860.5,237.3,858,291,883,344.5
		c25.7,55.4,62.9,73.7,95.4,87.3c32.5,13.9,60.3,23.2,66.6,66.9c6.2,42.8-10.2,107.6-38.5,159.2c-28.3,52.1-68.5,91.1-110.9,92
		c-61.1,1.4-100.9-69.6-146.9-138.4c-45.9-69.7-98.1-137.2-181.7-150.2c-98.3-15.7-105.8,52.1-238.4,36.6
		c-24.9-2.1-83.4-10.6-144-31.1C124,446.7,61.3,414.4,27.2,371.8C-16.8,316.3-6.9,242.5,52.9,208.5z"/>
	<path class="st1" d="M77.5,235.4c47.8-21.1,115.6-4.4,182.9,25.1c67.6,27.3,134.6,67.3,187.4,41.1c23.1-11.7,29.8-29.7,38.2-51.2
		c8.5-21.7,18.7-46.8,49.5-76.9C618,93.4,771.1,43.2,823.5,112.9c22.4,29.4,19.1,68.7,16.4,108.8c-2.7,40.4-4.8,81.4,19,122.5
		c24.5,42.5,59.6,56.7,90.2,67.4c30.7,10.8,56.9,18.1,63,51.6c6,32.8-9,82.3-35.3,121.6c-26.3,39.7-63.9,69.3-103.8,69.8
		c-57.5,0.7-95.3-53.8-138.9-106.7c-43.6-53.6-93-105.6-171.8-116c-92.5-12.6-99.2,39.3-224,26.6c-23.4-1.8-78.5-8.6-135.6-24.6
		C145.7,418.1,86.5,393,54.3,360.2C12.6,317.4,21.5,261,77.5,235.4z"/>
</g>
</svg>
