<?xml version="1.0" encoding="utf-8"?>
<!-- Generator: Adobe Illustrator 23.0.3, SVG Export Plug-In . SVG Version: 6.00 Build 0)  -->
<svg version="1.1" id="Layer_1" xmlns="http://www.w3.org/2000/svg" xmlns:xlink="http://www.w3.org/1999/xlink" x="0px" y="0px"
	 viewBox="0 0 165.3 40.3" style="enable-background:new 0 0 165.3 40.3;" xml:space="preserve">
<style type="text/css">
	.st0{enable-background:new    ;}
	.st1{fill:#0080EE;}
	.st2{fill:none;}
</style>
<g id="CALDERA-4">
	<g class="st0">
		<path class="st1" d="M51.8,14.1c-0.7-0.2-1.3-0.4-1.8-0.5c-0.5-0.1-1.1-0.2-1.8-0.2c-1.4,0-2.4,0.5-3.1,1.7
			c-0.7,1.1-1.1,2.6-1.1,4.5c0,1.7,0.3,3.1,0.9,4.3c0.6,1.2,1.6,1.8,3.1,1.8c0.7,0,1.4-0.1,2-0.2c0.6-0.2,1.2-0.3,1.7-0.6l1.2,2.4
			c-0.6,0.3-1.4,0.6-2.4,0.8s-1.7,0.3-2.4,0.3c-2.6,0-4.6-0.8-5.8-2.5c-1.2-1.7-1.8-3.8-1.8-6.2c0-2.6,0.7-4.8,2-6.4
			c1.3-1.7,3.2-2.5,5.7-2.5c0.5,0,1.2,0.1,2.1,0.2c0.9,0.2,1.7,0.4,2.4,0.8L51.8,14.1z"/>
		<path class="st1" d="M66,11l6.6,16.5L69.3,28l-1.5-4h-6.5l-1.5,4h-3.2l6.6-17H66z M64.5,15.5l-2.2,5.9h4.5L64.5,15.5z"/>
		<path class="st1" d="M88.6,28H77.3V11h3.2v14.5h7.5L88.6,28z"/>
		<path class="st1" d="M99.6,28L99.6,28l-6.2,0V11h6.2c2.7,0,4.6,0.8,5.9,2.4c1.3,1.6,1.9,3.6,1.9,6c0,2.6-0.7,4.7-2,6.2
			C104,27.2,102.1,28,99.6,28z M99.7,13.8h-3.1v11.5h2.9c1.4,0,2.5-0.5,3.3-1.4c0.8-0.9,1.2-2.4,1.2-4.5c0-1.8-0.3-3.2-1-4.2
			S101.2,13.8,99.7,13.8z"/>
		<path class="st1" d="M125.4,28h-11.9V11h10.1l0.5,2.5h-7.4v4.6h4.5l0.5,2.6h-5.1v4.8h8.2L125.4,28z"/>
		<path class="st1" d="M140.4,28l-3.6-6.5c-0.2,0-0.4,0-0.6,0c-0.2,0-0.4,0-0.6,0h-1.9V28h-3.2V11h5.3c1.8,0,3.4,0.4,4.8,1.3
			c1.3,0.8,2,2.2,2,3.9c0,1.1-0.3,2-0.8,2.7c-0.5,0.8-1.2,1.3-2.1,1.8l4.2,7.3H140.4z M135.7,13.7h-2v5.2h2c1,0,1.8-0.2,2.4-0.6
			c0.6-0.4,1-1,1-1.9c0-1-0.3-1.6-0.9-2C137.6,13.9,136.8,13.7,135.7,13.7z"/>
		<path class="st1" d="M156.1,11l6.6,16.5l-3.2,0.5l-1.5-4h-6.5l-1.5,4h-3.2l6.6-17H156.1z M154.6,15.5l-2.2,5.9h4.5L154.6,15.5z"/>
	</g>
</g>
<g id="Rectangle_1">
	<g>
		<g>
			<path class="st1" d="M14.1,28.3L0,14.1L14.1,0l14.1,14.1L14.1,28.3z M4.9,14.1l9.2,9.2l9.2-9.2l-9.2-9.2L4.9,14.1z"/>
		</g>
	</g>
</g>
<g id="Rectangle_2">
	<rect x="4.1" y="14.9" transform="matrix(0.7071 -0.7071 0.7071 0.7071 -13.4352 17.2849)" class="st2" width="20" height="20"/>
	<g>
		<path class="st1" d="M14.1,39L0,24.9l14.1-14.1l14.1,14.1L14.1,39z M5,24.9l9.2,9.2l9.2-9.2l-9.2-9.2L5,24.9z"/>
	</g>
</g>
</svg>
