<svg id="Layer_1" xmlns="http://www.w3.org/2000/svg" viewBox="0 0 165.3 40.3"><style>.st1{fill:#0080ee}</style><g id="CALDERA-4"><path class="st1" d="M51.8 14.1c-.7-.2-1.3-.4-1.8-.5-.5-.1-1.1-.2-1.8-.2-1.4 0-2.4.5-3.1 1.7-.7 1.1-1.1 2.6-1.1 4.5 0 1.7.3 3.1.9 4.3.6 1.2 1.6 1.8 3.1 1.8.7 0 1.4-.1 2-.2.6-.2 1.2-.3 1.7-.6l1.2 2.4c-.6.3-1.4.6-2.4.8s-1.7.3-2.4.3c-2.6 0-4.6-.8-5.8-2.5-1.2-1.7-1.8-3.8-1.8-6.2 0-2.6.7-4.8 2-6.4 1.3-1.7 3.2-2.5 5.7-2.5.5 0 1.2.1 2.1.2.9.2 1.7.4 2.4.8l-.9 2.3zM66 11l6.6 16.5-3.3.5-1.5-4h-6.5l-1.5 4h-3.2l6.6-17H66zm-1.5 4.5l-2.2 5.9h4.5l-2.3-5.9zM88.6 28H77.3V11h3.2v14.5H88l.6 2.5zM99.6 28h-6.2V11h6.2c2.7 0 4.6.8 5.9 2.4 1.3 1.6 1.9 3.6 1.9 6 0 2.6-.7 4.7-2 6.2-1.4 1.6-3.3 2.4-5.8 2.4zm.1-14.2h-3.1v11.5h2.9c1.4 0 2.5-.5 3.3-1.4.8-.9 1.2-2.4 1.2-4.5 0-1.8-.3-3.2-1-4.2s-1.8-1.4-3.3-1.4zM125.4 28h-11.9V11h10.1l.5 2.5h-7.4v4.6h4.5l.5 2.6h-5.1v4.8h8.2l.6 2.5zM140.4 28l-3.6-6.5H133.7V28h-3.2V11h5.3c1.8 0 3.4.4 4.8 1.3 1.3.8 2 2.2 2 3.9 0 1.1-.3 2-.8 2.7-.5.8-1.2 1.3-2.1 1.8l4.2 7.3h-3.5zm-4.7-14.3h-2v5.2h2c1 0 1.8-.2 2.4-.6.6-.4 1-1 1-1.9 0-1-.3-1.6-.9-2-.6-.5-1.4-.7-2.5-.7zM156.1 11l6.6 16.5-3.2.5-1.5-4h-6.5l-1.5 4h-3.2l6.6-17h2.7zm-1.5 4.5l-2.2 5.9h4.5l-2.3-5.9z"/></g><path class="st1" d="M14.1 28.3L0 14.1 14.1 0l14.1 14.1-14.1 14.2zM4.9 14.1l9.2 9.2 9.2-9.2-9.2-9.2-9.2 9.2z" id="Rectangle_1"/><g id="Rectangle_2"><path transform="rotate(-45 14.1469 24.8605)" fill="none" d="M4.1 14.9h20v20h-20z"/><path class="st1" d="M14.1 39L0 24.9l14.1-14.1 14.1 14.1L14.1 39zM5 24.9l9.2 9.2 9.2-9.2-9.2-9.2L5 24.9z"/></g></svg>