<svg xmlns="http://www.w3.org/2000/svg" viewBox="0 0 712.84 503.85"><defs><style>.cls-4{fill:#1e95fa}</style></defs><g id="Layer_2" data-name="Layer 2"><g id="Layer_1-2" data-name="Layer 1"><g id="Group_552" data-name="Group 552"><path id="Path_356" data-name="Path 356" d="M8.86 194.18c10.57-13.13 29.51-21.47 66.06-21.68 35.77-.43 89.17 7.26 150.84 21 48.37 10.57 49.84 15.54 71.57 14.27 36.64-2 63.76-20.22 89.93-39.66 25.94-19 50.92-39.26 77.94-35.7 25.27 3.67 48.52 23.18 70.4 51.75 21 28.5 40.69 66.05 39.16 104.14.19 30.19-14.64 58.23-31.8 82.81-17.63 24.57-37.58 45.68-58.33 61.55s-42.53 26.39-66.3 28.57c-23.53 2.08-49.17-4.24-72.73-24.37-27.06-22.36-41.58-49.51-54.16-70.09-12.59-20.87-23.25-35.19-42.76-38.81-24.67-3.86-42.35 12.4-62.14 31-19.46 18.2-41 38.77-65.67 33.51-17.8-4.39-31.92-17.4-47.08-33.83a478.41 478.41 0 0 1-44.06-57C16.41 281.12 5.6 260 1.8 240.81c-4.05-19.07-1.09-36.15 7.06-46.63z" fill="#e6533b"/><path id="Path_357" data-name="Path 357" d="M31.42 207.85c9.8-10.6 27.34-17.33 61.21-17.5 33.16-.35 82.64 5.87 139.79 17 44.83 8.53 46.19 12.55 66.32 11.52 34-1.58 59.1-16.32 83.35-32 24-15.37 47.18-31.7 72.22-28.83 23.42 3 45 18.72 65.24 41.79 19.49 23 37.71 53.33 36.29 84.08.18 24.38-13.57 47-29.47 66.87-16.33 19.84-34.82 36.89-54.05 49.7s-39.42 21.31-61.44 23.07a98.49 98.49 0 0 1-67.4-19.67c-25.08-18.06-38.53-40-50.19-56.6-11.67-16.86-21.54-28.41-39.63-31.34-22.85-3.12-39.24 10-57.58 25.06-18 14.7-38 31.31-60.86 27.06-16.49-3.54-29.57-14.05-43.63-27.31a398.3 398.3 0 0 1-40.82-46C38.42 278.05 28.4 261 24.88 245.51c-3.76-15.4-1.01-29.19 6.54-37.66z" fill="#ef654f"/></g><g id="Group_553" data-name="Group 553"><path id="Path_358" data-name="Path 358" d="M578.11 347.73H66.05c-5.54 0-10.07-5-10.07-11.14l67.1-89.45h398l67.09 89.45c0 6.13-4.53 11.14-10.06 11.14z"/><path id="Path_359" data-name="Path 359" d="M510.89 0H133.27a9.94 9.94 0 0 0-9.9 9.9v232.52a9.92 9.92 0 0 0 9.9 9.89h377.62a9.91 9.91 0 0 0 9.89-9.89V9.89A9.93 9.93 0 0 0 510.89 0zm-7.13 214.25H140.39V18h363.37z"/><path id="Path_360" data-name="Path 360" d="M485.73 276.74L575 503.85l39.79-98.1L712.84 366z" fill="#ffc85a"/><path id="Rectangle_666" data-name="Rectangle 666" class="cls-4" d="M140.39 17.99h363.37v20.06H140.39z"/><path id="Rectangle_667" data-name="Rectangle 667" class="cls-4" d="M70.24 61.61h293.9v82.26H70.24z"/><path id="Rectangle_668" data-name="Rectangle 668" class="cls-4" d="M70.24 150.6h93.44v82.26H70.24z"/><path id="Rectangle_669" data-name="Rectangle 669" class="cls-4" d="M171.51 150.6h192.63v82.26H171.51z"/></g></g></g></svg>