<svg xmlns="http://www.w3.org/2000/svg" viewBox="0 0 249.8 216"><radialGradient id="a" cx="24.0815" cy="16.1228" r="84.1088" gradientTransform="matrix(1 0 0 -1 0 218)" gradientUnits="userSpaceOnUse"><stop offset="0" stop-color="#004f71"/><stop offset=".9041" stop-color="#0085ad"/></radialGradient><path d="M191.1 2.5c-2.7 2.4-31.1 33.5-62 64.9h-12.8C151.9 35.2 189.8 1 190.4.4c1-1 3-.1.7 2.1zM32.5 215.6c27.9-2.7 70.5-20.4 115.7-49.1.4-.2.4-.8-.2-1-.6-.2-1.3.3-1.3.3-34.5 20.4-66.4 32.8-88.1 35-38.9 3.9-48.4-17.8 11.4-78.6H55.5c-72.1 70.5-67.5 97.6-23 93.4z" fill="url(#a)"/><path d="M228.3 116.6l21.5-43.9h-12.6l-45.6 31.1-15.4-31.1h-14.3l-21 43.9H153L164.9 91l12.3 25.6h9.4l36.6-25.5-11.2 25.5zM87.2 116.6h46.3l-6.4-43.9h-16.8l-48.5 43.9h14.3L112.2 84l3.6 24.8h-20zM58.2 108.6l-.8 5.3s-54.7 11.4-49-14.8c6.9-32 67.8-26.4 67.8-26.4l-4.6 7.2s-33.4-6.4-42.5 14.2c-10.7 23.6 29.1 14.5 29.1 14.5z"/><path d="M246.6 112.8c0 2.5-1.7 4.5-4.3 4.5-2.5 0-4.4-1.9-4.4-4.5 0-2.5 1.8-4.5 4.4-4.5 2.6 0 4.3 2 4.3 4.5zm-7.7 0c0 2 1.4 3.6 3.4 3.6 2.2 0 3.3-1.5 3.3-3.6 0-2-1.3-3.6-3.3-3.6-2.3 0-3.4 1.7-3.4 3.6zm1.6 2.1v-4.4h1.9c1 0 1.8.3 1.8 1.3 0 .6-.4.9-.7 1 .4.1.6.4.6 1.2 0 .2 0 .6.1 1h-1c-.1-.2-.1-.7-.1-.9 0-.6-.1-.8-.7-.8h-.6v1.7c-.2-.1-1.3-.1-1.3-.1zm1.1-2.5h.7c.4 0 .7-.1.7-.6 0-.4-.2-.6-.7-.6h-.7v1.2z" fill="#fff"/></svg>