<svg xmlns="http://www.w3.org/2000/svg" xmlns:xlink="http://www.w3.org/1999/xlink" width="432" height="180" viewBox="-3.873 -2.494 432 180"><defs><path id="a" d="M87.013 171.33c-46.034 0-83.35-37.335-83.35-83.388 0-46.057 37.316-83.397 83.35-83.397 46.036 0 83.357 37.34 83.357 83.397 0 46.053-37.321 83.388-83.357 83.388"/></defs><clipPath id="b"><use xlink:href="#a" overflow="visible"/></clipPath><g clip-path="url(#b)"><path fill="#101235" d="M87.013 171.33c-10.915.083-21.861-1.987-31.998-6.123-10.141-4.121-19.46-10.278-27.268-17.991-7.797-7.723-14.059-17.003-18.302-27.143-4.256-10.14-6.458-21.127-6.492-32.142C2.9 76.934 5.022 65.896 9.249 55.715c4.202-10.189 10.441-19.53 18.227-27.336 7.78-7.811 17.104-14.085 27.292-18.322 10.185-4.251 21.211-6.435 32.256-6.44 11.022.003 22.065 2.19 32.245 6.441 10.188 4.238 19.512 10.513 27.292 18.324 7.786 7.806 14.025 17.147 18.227 27.337 4.226 10.182 6.353 21.214 6.296 32.22-.035 11.006-2.238 22.001-6.496 32.138-4.245 10.14-10.509 19.418-18.306 27.142-7.809 7.712-17.128 13.868-27.27 17.988-10.137 4.136-21.084 6.206-31.999 6.123 10.915-.068 21.801-2.289 31.825-6.54 10.028-4.237 19.184-10.476 26.802-18.211 7.64-7.712 13.761-16.916 17.865-26.949 4.12-10.026 6.202-20.865 6.152-31.689-.042-10.823-2.2-21.625-6.351-31.606-4.146-9.984-10.29-19.126-17.939-26.758-7.645-7.636-16.795-13.758-26.777-17.88-9.98-4.137-20.77-6.243-31.577-6.226-10.784-.022-21.591 2.085-31.567 6.221-9.982 4.122-19.133 10.243-26.778 17.879-7.65 7.631-13.793 16.774-17.94 26.758-4.15 9.984-6.314 20.778-6.354 31.611-.05 10.815 2.031 21.661 6.15 31.686 4.104 10.034 10.225 19.238 17.863 26.952 7.618 7.735 16.773 13.975 26.802 18.212 10.023 4.252 20.909 6.472 31.824 6.54z"/></g><g clip-path="url(#b)"><radialGradient id="c" cx="79.4316" cy="177.3188" r="84.0515" gradientTransform="matrix(1 0 0 1.0005 7.0879 -89.6038)" gradientUnits="userSpaceOnUse"><stop offset=".3758" stop-color="#62a293"/><stop offset="1" stop-color="#277f6e"/></radialGradient><path fill="url(#c)" d="M170.573 87.804c0 46.448-37.633 84.092-84.05 84.092-46.424 0-84.057-37.645-84.057-84.092 0-46.441 37.633-84.093 84.057-84.093 46.417 0 84.05 37.652 84.05 84.093z"/><radialGradient id="d" cx="79.4316" cy="177.8882" r="84.071" gradientTransform="translate(7.0879 -89.9434)" gradientUnits="userSpaceOnUse"><stop offset="0" stop-color="#749fd4"/><stop offset="1" stop-color="#4e74b9"/></radialGradient><path fill="url(#d)" d="M170.573 87.941c0 46.448-37.633 84.092-84.05 84.092-46.424 0-84.057-37.645-84.057-84.092 0-46.44 37.633-84.085 84.057-84.085 46.417 0 84.05 37.645 84.05 84.085z"/><path fill="#87C76D" d="M4.121 96.721s21.569-12.31 35.217-8.056c13.645 4.261 36.683 16.415 43.265 11.959 6.58-4.463 23.159-25.214 45.353-12.888 18.589 10.322 40.056 20.857 40.056 20.857s-9.617 30.989-29.294 44.734c-19.675 13.754-45.063 26.037-84.374 11.354-39.309-14.685-51.645-60.843-50.223-67.96z"/><defs><path id="e" d="M170.366 87.935c0 7.265-.931 14.299-2.664 21.027-6.813-3.89-28.418-16.073-39.747-21.225-13.559-6.18-23.593-3.859-32.843 3.681-4.685 3.822-8.951 7.263-13.35 10.098-5.787 1.052-15.157-1.038-28.78-8.589-20.26-11.25-45.271 1.79-48.856 3.792-.317-2.893-.467-5.822-.467-8.784 0-46.05 37.316-83.391 83.364-83.391 46.026 0 83.343 37.34 83.343 83.391z"/></defs><clipPath id="f"><use xlink:href="#e" overflow="visible"/></clipPath><g clip-path="url(#f)"><radialGradient id="g" cx="211.7734" cy="212.0659" r="86.5542" gradientTransform="rotate(90 211.8237 87.2662)" gradientUnits="userSpaceOnUse"><stop offset="0" stop-color="#5e89c6"/><stop offset="1" stop-color="#265eac"/></radialGradient><path fill="url(#g)" d="M89.572 174.105l-2.559-87.856-2.556 87.856z"/><radialGradient id="h" cx="211.7729" cy="212.0659" r="86.5177" gradientTransform="rotate(90 211.8237 87.2662)" gradientUnits="userSpaceOnUse"><stop offset="0" stop-color="#5e89c6"/><stop offset="1" stop-color="#265eac"/></radialGradient><path fill="url(#h)" d="M89.572 0l-2.559 87.863L84.457 0z"/><radialGradient id="i" cx="211.7734" cy="212.0669" r="86.5547" gradientTransform="rotate(90 211.8237 87.2662)" gradientUnits="userSpaceOnUse"><stop offset="0" stop-color="#5e89c6"/><stop offset="1" stop-color="#265eac"/></radialGradient><path fill="url(#i)" d="M150.355 146.801L86.442 86.487l60.29 63.937z"/><radialGradient id="j" cx="211.7734" cy="212.0649" r="86.5542" gradientTransform="rotate(90 211.8237 87.2662)" gradientUnits="userSpaceOnUse"><stop offset="0" stop-color="#5e89c6"/><stop offset="1" stop-color="#265eac"/></radialGradient><path fill="url(#j)" d="M27.294 23.69l60.29 63.94-63.906-60.321z"/><g><radialGradient id="k" cx="211.7734" cy="212.063" r="86.5562" gradientTransform="rotate(90 211.8237 87.2662)" gradientUnits="userSpaceOnUse"><stop offset="0" stop-color="#5e89c6"/><stop offset="1" stop-color="#265eac"/></radialGradient><path fill="url(#k)" d="M0 89.623l87.823-2.564L0 84.495z"/><radialGradient id="l" cx="211.7734" cy="212.0649" r="86.5715" gradientTransform="rotate(90 211.8237 87.2662)" gradientUnits="userSpaceOnUse"><stop offset="0" stop-color="#5e89c6"/><stop offset="1" stop-color="#265eac"/></radialGradient><path fill="url(#l)" d="M174.029 89.623l-87.821-2.564 87.821-2.564z"/></g><g><radialGradient id="m" cx="211.7734" cy="212.0649" r="86.5546" gradientTransform="rotate(90 211.8237 87.2662)" gradientUnits="userSpaceOnUse"><stop offset="0" stop-color="#5e89c6"/><stop offset="1" stop-color="#265eac"/></radialGradient><path fill="url(#m)" d="M27.294 150.424l60.29-63.937-63.906 60.314z"/><radialGradient id="n" cx="211.7734" cy="212.0669" r="86.3314" gradientTransform="rotate(90 211.8237 87.2662)" gradientUnits="userSpaceOnUse"><stop offset="0" stop-color="#5e89c6"/><stop offset="1" stop-color="#265eac"/></radialGradient><path fill="url(#n)" d="M150.355 27.311L86.442 87.63l60.29-63.94z"/></g><g><radialGradient id="o" cx="211.7734" cy="212.0649" r="86.557" gradientTransform="rotate(90 211.8237 87.2662)" gradientUnits="userSpaceOnUse"><stop offset="0" stop-color="#5e89c6"/><stop offset="1" stop-color="#265eac"/></radialGradient><path fill="url(#o)" d="M122.678 166.506l-35.97-80.195 31.242 82.152z"/><radialGradient id="p" cx="211.7734" cy="212.064" r="86.5554" gradientTransform="rotate(90 211.8237 87.2662)" gradientUnits="userSpaceOnUse"><stop offset="0" stop-color="#5e89c6"/><stop offset="1" stop-color="#265eac"/></radialGradient><path fill="url(#p)" d="M56.082 5.651l31.243 82.153L51.354 7.608z"/><g><radialGradient id="q" cx="211.7729" cy="212.0649" r="86.5627" gradientTransform="rotate(90 211.8237 87.2662)" gradientUnits="userSpaceOnUse"><stop offset="0" stop-color="#5e89c6"/><stop offset="1" stop-color="#265eac"/></radialGradient><path fill="url(#q)" d="M168.39 118.007L86.268 86.749l80.158 35.991z"/><radialGradient id="r" cx="211.7734" cy="212.0669" r="86.5522" gradientTransform="rotate(90 211.8237 87.2662)" gradientUnits="userSpaceOnUse"><stop offset="0" stop-color="#5e89c6"/><stop offset="1" stop-color="#265eac"/></radialGradient><path fill="url(#r)" d="M7.605 51.377l80.156 35.989L5.646 56.107z"/></g><g><radialGradient id="s" cx="211.7729" cy="212.0669" r="86.554" gradientTransform="rotate(90 211.8237 87.2662)" gradientUnits="userSpaceOnUse"><stop offset="0" stop-color="#5e89c6"/><stop offset="1" stop-color="#265eac"/></radialGradient><path fill="url(#s)" d="M7.605 122.74l80.156-35.991-82.115 31.258z"/><radialGradient id="t" cx="211.7734" cy="212.064" r="86.6432" gradientTransform="rotate(90 211.8237 87.2662)" gradientUnits="userSpaceOnUse"><stop offset="0" stop-color="#5e89c6"/><stop offset="1" stop-color="#265eac"/></radialGradient><path fill="url(#t)" d="M168.387 56.107L86.268 87.366l80.158-35.989z"/></g><g><radialGradient id="u" cx="211.7734" cy="212.0649" r="86.5562" gradientTransform="rotate(90 211.8237 87.2662)" gradientUnits="userSpaceOnUse"><stop offset="0" stop-color="#5e89c6"/><stop offset="1" stop-color="#265eac"/></radialGradient><path fill="url(#u)" d="M56.082 168.463l31.241-82.152-35.969 80.195z"/><radialGradient id="v" cx="211.7734" cy="212.0669" r="86.4459" gradientTransform="rotate(90 211.8237 87.2662)" gradientUnits="userSpaceOnUse"><stop offset="0" stop-color="#5e89c6"/><stop offset="1" stop-color="#265eac"/></radialGradient><path fill="url(#v)" d="M122.678 7.608L86.706 87.804 117.95 5.651z"/></g></g><g><radialGradient id="w" cx="211.7729" cy="212.064" r="86.5556" gradientTransform="rotate(90 211.8237 87.2662)" gradientUnits="userSpaceOnUse"><stop offset="0" stop-color="#5e89c6"/><stop offset="1" stop-color="#265eac"/></radialGradient><path fill="url(#w)" d="M137.153 158.251L86.568 86.382l46.317 74.693z"/><radialGradient id="x" cx="211.7734" cy="212.0649" r="86.5541" gradientTransform="rotate(90 211.8237 87.2662)" gradientUnits="userSpaceOnUse"><stop offset="0" stop-color="#5e89c6"/><stop offset="1" stop-color="#265eac"/></radialGradient><path fill="url(#x)" d="M41.146 13.04l46.31 74.688-50.58-71.87z"/><g><radialGradient id="y" cx="211.7729" cy="212.0649" r="86.5587" gradientTransform="rotate(90 211.8237 87.2662)" gradientUnits="userSpaceOnUse"><stop offset="0" stop-color="#5e89c6"/><stop offset="1" stop-color="#265eac"/></radialGradient><path fill="url(#y)" d="M172.792 101.929L86.223 86.896l85.545 20.047z"/><radialGradient id="z" cx="211.7734" cy="212.0659" r="86.5526" gradientTransform="rotate(90 211.8237 87.2662)" gradientUnits="userSpaceOnUse"><stop offset="0" stop-color="#5e89c6"/><stop offset="1" stop-color="#265eac"/></radialGradient><path fill="url(#z)" d="M2.264 67.167l85.54 20.048-86.561-15.03z"/></g><g><radialGradient id="A" cx="211.7734" cy="212.0649" r="86.5555" gradientTransform="rotate(90 211.8237 87.2662)" gradientUnits="userSpaceOnUse"><stop offset="0" stop-color="#5e89c6"/><stop offset="1" stop-color="#265eac"/></radialGradient><path fill="url(#A)" d="M15.854 137.217l71.835-50.604-74.661 46.339z"/><radialGradient id="B" cx="211.7734" cy="212.0649" r="86.5478" gradientTransform="rotate(90 211.8237 87.2662)" gradientUnits="userSpaceOnUse"><stop offset="0" stop-color="#5e89c6"/><stop offset="1" stop-color="#265eac"/></radialGradient><path fill="url(#B)" d="M161.001 41.167L86.34 87.499l71.838-50.604z"/></g><g><radialGradient id="C" cx="211.7725" cy="212.0659" r="86.5557" gradientTransform="rotate(90 211.8237 87.2662)" gradientUnits="userSpaceOnUse"><stop offset="0" stop-color="#5e89c6"/><stop offset="1" stop-color="#265eac"/></radialGradient><path fill="url(#C)" d="M72.149 172.868l15.026-86.602-20.041 85.582z"/><radialGradient id="D" cx="211.7734" cy="212.0659" r="86.4721" gradientTransform="rotate(90 211.8237 87.2662)" gradientUnits="userSpaceOnUse"><stop offset="0" stop-color="#5e89c6"/><stop offset="1" stop-color="#265eac"/></radialGradient><path fill="url(#D)" d="M106.895 2.264L86.852 87.849l15.03-86.604z"/></g></g><g><radialGradient id="E" cx="211.7729" cy="212.0649" r="86.5576" gradientTransform="rotate(90 211.8237 87.2662)" gradientUnits="userSpaceOnUse"><stop offset="0" stop-color="#5e89c6"/><stop offset="1" stop-color="#265eac"/></radialGradient><path fill="url(#E)" d="M106.971 171.83L86.852 86.266l15.101 86.597z"/><radialGradient id="F" cx="211.7729" cy="212.0649" r="86.5558" gradientTransform="rotate(90 211.8237 87.2662)" gradientUnits="userSpaceOnUse"><stop offset="0" stop-color="#5e89c6"/><stop offset="1" stop-color="#265eac"/></radialGradient><path fill="url(#F)" d="M72.076 1.259l15.099 86.59L67.058 2.283z"/><g><radialGradient id="G" cx="211.7729" cy="212.064" r="86.5561" gradientTransform="rotate(90 211.8237 87.2662)" gradientUnits="userSpaceOnUse"><stop offset="0" stop-color="#5e89c6"/><stop offset="1" stop-color="#265eac"/></radialGradient><path fill="url(#G)" d="M161.041 132.88L86.34 86.613l71.883 50.543z"/><radialGradient id="H" cx="211.7734" cy="212.0649" r="86.5542" gradientTransform="rotate(90 211.8237 87.2662)" gradientUnits="userSpaceOnUse"><stop offset="0" stop-color="#5e89c6"/><stop offset="1" stop-color="#265eac"/></radialGradient><path fill="url(#H)" d="M15.809 36.954l71.88 50.545L12.99 41.237z"/></g><g><radialGradient id="I" cx="211.7734" cy="212.0649" r="86.5546" gradientTransform="rotate(90 211.8237 87.2662)" gradientUnits="userSpaceOnUse"><stop offset="0" stop-color="#5e89c6"/><stop offset="1" stop-color="#265eac"/></radialGradient><path fill="url(#I)" d="M2.283 107.024l85.521-20.128-86.55 15.109z"/><radialGradient id="J" cx="211.7729" cy="212.0649" r="86.5045" gradientTransform="rotate(90 211.8237 87.2662)" gradientUnits="userSpaceOnUse"><stop offset="0" stop-color="#5e89c6"/><stop offset="1" stop-color="#265eac"/></radialGradient><path fill="url(#J)" d="M172.772 72.109L86.223 87.215l85.528-20.122z"/></g><g><radialGradient id="K" cx="211.7734" cy="212.0649" r="86.5551" gradientTransform="rotate(90 211.8237 87.2662)" gradientUnits="userSpaceOnUse"><stop offset="0" stop-color="#5e89c6"/><stop offset="1" stop-color="#265eac"/></radialGradient><path fill="url(#K)" d="M41.208 161.118l46.248-74.741-50.518 71.922z"/><radialGradient id="L" cx="211.7729" cy="212.0649" r="86.5563" gradientTransform="rotate(90 211.8237 87.2662)" gradientUnits="userSpaceOnUse"><stop offset="0" stop-color="#5e89c6"/><stop offset="1" stop-color="#265eac"/></radialGradient><path fill="url(#L)" d="M137.091 15.818L86.568 87.732l46.25-74.737z"/></g></g></g><path fill="#265EAC" d="M70.69 118.536c98.744 1.181 77.78 13.901 61.347 26.847-15.785 12.426-28.137 17.525-1.202 33.15-11.312 7.903-25.366 12.574-40.573 12.574-17.501 0-33.443-6.171-45.477-16.326 13.159-31.717 65.596-41.382 75.242-46.019 10.111-4.875-36.496-9.607-49.337-10.226"/><path fill="#191D63" d="M70.693 118.402c12.295-.057 24.6-.019 36.897.677 6.146.343 12.297.795 18.429 1.6 3.064.424 6.125.938 9.167 1.656 3.025.762 6.092 1.581 8.924 3.433.695.485 1.381 1.053 1.945 1.805.566.742.979 1.714 1.041 2.714.116 2.047-.867 3.661-1.805 4.984-2 2.643-4.425 4.633-6.813 6.618-2.416 1.971-4.811 3.818-7.251 5.731-2.442 1.896-4.92 3.719-7.303 5.6-2.35 1.89-4.723 3.842-6.306 6.122-.771 1.143-1.273 2.353-1.278 3.562-.024 1.209.462 2.438 1.209 3.59 1.533 2.309 3.885 4.266 6.277 6.041 2.423 1.786 5.006 3.391 7.627 4.933l1.664.99-1.578 1.091c-6.458 4.456-13.657 7.808-21.198 9.897-7.539 2.109-15.414 2.966-23.209 2.6-7.803-.357-15.549-1.942-22.833-4.761-7.282-2.805-14.1-6.818-20.043-11.869l-.459-.396.231-.552c2.39-5.704 6.094-10.774 10.448-15.073 4.359-4.313 9.338-7.923 14.564-11.041 10.486-6.246 21.917-10.583 33.438-14.282l8.669-2.705c2.875-.909 5.815-1.728 8.534-2.895.638-.28 1.366-.742 1.369-1.109.028-.371-.697-.881-1.305-1.181-1.302-.647-2.756-1.08-4.199-1.48-2.899-.78-5.871-1.356-8.841-1.885-5.951-1.033-11.95-1.824-17.956-2.519-6.006-.677-12.031-1.281-18.065-1.638l.015-.258c6.048.305 12.078.843 18.099 1.457 6.02.629 12.033 1.357 18.013 2.333 2.99.495 5.977 1.047 8.924 1.81 1.471.39 2.942.804 4.361 1.489.35.177.702.377 1.036.639.31.262.709.628.719 1.252-.033.624-.447.971-.764 1.224-.348.257-.702.442-1.057.609-2.828 1.247-5.728 2.085-8.608 3.032l-8.632 2.785c-11.448 3.81-22.748 8.256-33.048 14.483-5.127 3.118-9.991 6.708-14.205 10.945-4.213 4.223-7.744 9.146-9.991 14.635l-.229-.938c5.837 4.885 12.517 8.741 19.632 11.421 7.115 2.69 14.676 4.176 22.265 4.462 7.598.285 15.232-.629 22.515-2.743 7.289-2.1 14.221-5.413 20.403-9.77l.088 2.071c-2.688-1.547-5.342-3.176-7.884-5.022-2.516-1.866-5.037-3.852-6.944-6.67-.926-1.4-1.678-3.128-1.662-5.023-.007-1.89.776-3.628 1.726-5.008 1.959-2.776 4.452-4.728 6.873-6.675 2.447-1.919 4.925-3.729 7.349-5.595l7.263-5.632c2.359-1.895 4.737-3.838 6.482-6.09.848-1.118 1.495-2.37 1.424-3.451-.031-1.066-.859-2.071-1.99-2.866-2.304-1.576-5.268-2.476-8.163-3.232-2.931-.738-5.93-1.281-8.948-1.743-6.037-.938-12.141-1.552-18.251-2.047-12.238-.924-24.517-1.509-36.802-1.885v-.257zM3.656 130.375c0 .301 0 .596.017.891l-1.523-2.152c.528-.333 1.041-.633 1.538-.89-.015.724-.032 1.428-.032 2.151zM62.961 118.097c-1.238-.019-2.49-.033-3.751-.047.466-.072 1.792-.057 3.751.047zM3.688 96.961c5.917-3.805 12.531-6.577 19.438-8.299 6.908-1.676 14.281-2.166 21.408-.533 3.54.773 7.02 2.251 10.107 3.992 3.045 1.643 6.139 3.199 9.282 4.608 3.149 1.396 6.358 2.652 9.665 3.538 3.304.843 6.742 1.456 10.212.724-3.214 1.595-7.054 1.6-10.579 1.118-3.57-.5-7.032-1.533-10.36-2.818-3.337-1.283-6.537-2.847-9.65-4.556-2.992-1.75-6.051-3.012-9.346-3.848-6.551-1.678-13.549-1.516-20.334-.307-6.799 1.23-13.483 3.406-19.843 6.381z"/><path fill="#191D63" d="M87.013 171.33c-10.915.247-21.924-1.699-32.136-5.784-10.222-4.052-19.651-10.165-27.59-17.868-7.905-7.731-14.269-17.068-18.61-27.285C4.32 110.17 2.03 99.096 1.933 87.916 1.816 76.822 3.906 65.599 8.167 55.27c4.218-10.348 10.517-19.848 18.391-27.799 7.87-7.962 17.361-14.321 27.702-18.627 10.338-4.323 21.551-6.546 32.753-6.558 11.208.009 22.417 2.233 32.76 6.556 10.341 4.306 19.825 10.667 27.702 18.625 7.877 7.951 14.171 17.456 18.394 27.801 4.259 10.338 6.358 21.534 6.239 32.672-.1 11.133-2.39 22.246-6.746 32.458-4.344 10.217-10.71 19.549-18.618 27.285-15.83 15.462-37.845 24.279-59.731 23.647 10.917-.238 21.736-2.59 31.682-6.885 9.946-4.309 18.992-10.588 26.483-18.329 7.529-7.703 13.542-16.858 17.544-26.813 4.021-9.946 6.013-20.672 5.909-31.363-.114-10.696-2.3-21.329-6.418-31.156-4.123-9.827-10.208-18.808-17.766-26.292-7.548-7.491-16.542-13.528-26.368-17.57-9.817-4.066-20.439-6.132-31.065-6.12-10.622-.019-21.243 2.05-31.06 6.115-9.829 4.044-18.818 10.086-26.371 17.573-7.561 7.482-13.645 16.463-17.768 26.295-4.118 9.833-6.313 20.438-6.42 31.177-.107 10.648 1.888 21.405 5.908 31.347 4.002 9.955 10.02 19.105 17.546 26.813 7.496 7.741 16.535 14.025 26.485 18.324 9.946 4.299 20.767 6.645 31.679 6.884z"/><path fill="#191D63" d="M98.335 129.062c-9.298 2.009-18.292 5.17-26.911 9.018-8.618 3.87-16.856 8.55-24.421 14.092-7.565 5.532-14.435 11.94-20.232 19.144-2.337 2.895-4.508 5.923-6.463 9.079-1.3-1.714-2.506-3.471-3.664-5.279 1.885-2.528 3.902-4.976 6.04-7.299 6.599-7.218 14.178-13.393 22.3-18.597 8.12-5.198 16.796-9.436 25.747-12.797 8.965-3.339 18.186-5.937 27.604-7.361zM80.598 126.096c-7.458 1.176-14.733 3.209-21.784 5.756-7.054 2.565-13.864 5.731-20.234 9.56-6.373 3.823-12.309 8.322-17.494 13.507-3.478 3.48-6.627 7.284-9.338 11.336-.947-1.99-1.823-4.014-2.606-6.094 2.666-3.147 5.587-6.075 8.674-8.756 5.877-5.094 12.386-9.331 19.213-12.797 6.839-3.462 13.995-6.194 21.289-8.274 7.307-2.067 14.763-3.6 22.28-4.238zM67.22 122.33c-6.07.348-12.064 1.429-17.927 2.938-5.844 1.533-11.541 3.557-16.952 6.118-5.422 2.562-10.548 5.661-15.216 9.288-4.006 3.104-7.656 6.6-10.879 10.446-.559-2.186-1.026-4.418-1.402-6.68 3.033-2.762 6.253-5.242 9.66-7.461 5.256-3.418 10.862-6.193 16.666-8.364 5.782-2.186 11.762-3.767 17.806-4.823 6.044-1.024 12.157-1.628 18.244-1.462z"/><path fill="#191D63" d="M72.028 118.74c-11.738-.647-23.536.091-34.893 2.519-5.68 1.219-11.243 2.861-16.589 4.976-2.683 1.052-5.301 2.232-7.82 3.528-1.264.647-2.516 1.328-3.721 2.052-1.179.704-2.442 1.504-3.39 2.228l-1.942-2.756v-.02c-.017-.295-.017-.59-.017-.891 0-.724.017-1.428.031-2.151v-.015c.888-.505 1.745-.938 2.651-1.371 1.369-.681 2.771-1.3 4.168-1.871 2.823-1.161 5.668-2.151 8.563-3.014 5.768-1.719 11.646-2.909 17.551-3.666 11.844-1.491 23.758-1.191 35.408.452z"/><path fill="#191D63" d="M49.775 118.816c3.885-4.004 8.501-7.322 13.574-9.831a31.9973 31.9973 0 0 1 3.939-1.618c1.345-.453 2.6-.9 3.864-1.434 2.516-1.062 4.946-2.304 7.27-3.732 4.646-2.881 8.972-6.299 13.238-9.846l3.24-2.651c1.135-.897 2.312-1.741 3.54-2.514 2.457-1.547 5.142-2.809 7.999-3.563 2.847-.767 5.832-1.033 8.753-.829 2.928.2 5.777.895 8.496 1.819 2.728.926 5.301 2.183 7.789 3.439 2.5 1.259 4.971 2.564 7.425 3.895 9.793 5.355 19.373 11.06 28.801 17.011-9.917-5.08-19.81-10.205-29.775-15.126-2.49-1.235-4.987-2.447-7.501-3.602-2.525-1.159-5.008-2.273-7.577-3.066-5.125-1.607-10.572-2.109-15.63-.669-2.521.712-4.939 1.821-7.206 3.213-1.136.697-2.235 1.469-3.29 2.288l-3.249 2.602c-4.397 3.433-8.879 6.903-13.876 9.622-2.488 1.361-5.075 2.575-7.77 3.485-1.335.466-2.735.856-4.056 1.214-1.305.371-2.597.813-3.873 1.313-5.1 2.029-9.83 5.048-14.125 8.58z"/><g><path fill="#101235" d="M4.125 96.718c.156.47.138.604.081.659-.079.023-.196-.036-.517-.416-.177-.465-.149-.606-.083-.664.088-.025.217.031.519.421z"/></g></g><path fill="none" d="M168.63 87.939c-.114-10.691-2.297-21.325-6.392-31.163-4.106-9.836-10.179-18.836-17.73-26.342-7.548-7.51-16.575-13.519-26.409-17.558-9.843-4.054-20.429-6.102-31.11-6.075-10.567-.036-21.236 2.016-31.056 6.068-9.833 4.037-18.86 10.048-26.408 17.558-7.553 7.506-13.624 16.506-17.73 26.343-4.094 9.848-6.289 20.45-6.401 31.187-.107 10.65 1.888 21.41 5.908 31.351 1.769 4.398 3.952 8.631 6.465 12.664 14.588 22.881 40.164 38.102 69.246 38.102 28.937 0 54.406-15.068 69.031-37.759 2.604-4.133 4.861-8.484 6.68-13.007 4.021-9.952 6.016-20.676 5.906-31.369z"/><path fill="#191D63" d="M172.11 87.939c.395-22.338-8.876-44.599-24.69-60.414-7.879-7.937-17.33-14.319-27.664-18.639-10.317-4.333-21.56-6.58-32.71-6.599-11.261.029-22.423 2.267-32.764 6.599-10.333 4.32-19.784 10.703-27.661 18.637C10.8 43.327 1.54 65.62 1.933 87.913c.074 18.696 6.666 37.107 18.106 51.666 15.487 20.058 39.74 33.013 66.975 33.013 27.716 0 52.361-13.402 67.806-34.064 4.239-5.57 7.796-11.669 10.543-18.125 4.355-10.218 6.647-21.325 6.747-32.464zm-85.097 82.134c-29.082 0-54.658-15.221-69.246-38.102-2.514-4.033-4.696-8.266-6.465-12.664-4.021-9.941-6.015-20.701-5.908-31.351.112-10.736 2.307-21.339 6.401-31.186 4.106-9.836 10.177-18.837 17.73-26.343 7.548-7.51 16.575-13.521 26.409-17.558 9.819-4.052 20.488-6.104 31.056-6.068 10.681-.026 21.267 2.021 31.11 6.075 9.833 4.04 18.86 10.048 26.409 17.558 7.551 7.506 13.624 16.506 17.73 26.342 4.094 9.838 6.277 20.472 6.392 31.163.109 10.693-1.886 21.417-5.906 31.368-1.818 4.522-4.075 8.874-6.68 13.007-14.626 22.69-40.095 37.759-69.032 37.759zM265.72 52.296c.891.709 1.722 1.438 2.505 2.171.773.729 1.54 1.542 2.295 2.436 3.689 4.218 6.425 9.303 8.205 15.261h-5.135c-2.633-7.691-6.93-13.514-12.897-17.466-1.873-1.2-3.899-2.242-6.082-3.135h-9.753v20.601h-4.937V25.492h23.771c1.161 0 2.313.045 3.471.136.359.048.692.079 1.004.1.314.024.647.079 1.003.167.978.224 1.926.524 2.84.902.911.374 1.723.874 2.439 1.497.891.755 1.657 1.6 2.302 2.535.647.933 1.147 1.955 1.505 3.066.399 1.285.6 2.645.6 4.066 0 1.866-.29 3.621-.866 5.268-.576 1.645-1.455 3.066-2.633 4.269-1.176 1.195-2.647 2.168-4.401 2.899-1.757.73-3.812 1.121-6.168 1.166.179.133.336.255.467.367.135.109.289.233.465.366zm-20.863-5.801h19.908c3.211 0 5.53-.764 6.951-2.299 1.426-1.536 2.14-3.457 2.14-5.768 0-2.352-.747-4.278-2.24-5.768-1.494-1.488-3.844-2.233-7.051-2.233h-19.708v16.068zM216.138 51.556c2.345-.045 4.413-.433 6.16-1.169 1.747-.712 3.221-1.702 4.392-2.897 1.195-1.2 2.071-2.624 2.646-4.251.573-1.657.876-3.404.876-5.263 0-1.428-.207-2.78-.598-4.073-.371-1.124-.876-2.14-1.521-3.08-.645-.919-1.402-1.773-2.297-2.528-.714-.624-1.517-1.126-2.436-1.497-.924-.391-1.863-.69-2.854-.893-.348-.093-.686-.165-.988-.186-.321-.021-.643-.042-1.01-.09a42.9436 42.9436 0 0 0-3.473-.141h-23.774v46.669h4.944V51.556h19.933zm6.92-7.353c-1.422 1.514-3.747 2.3-6.941 2.3h-19.911V30.432h19.706c3.219 0 5.561.736 7.056 2.228 1.495 1.493 2.23 3.404 2.23 5.773-.001 2.296-.713 4.227-2.14 5.77zM291.929 72.097V25.43h4.863v46.667h-4.863zM341.086 27.094c3.113 1.107 5.756 2.678 7.937 4.702 2.176 2.026 3.854 4.475 5.034 7.367 1.177 2.888 1.765 6.087 1.765 9.603 0 3.554-.579 6.761-1.733 9.631-1.157 2.866-2.823 5.311-5.001 7.334-2.179 2.023-4.835 3.59-7.965 4.699-3.136 1.107-6.656 1.667-10.567 1.667h-17.937V25.43h17.937c3.91 0 7.421.552 10.53 1.664zm-1.497 38.771c2.557-.912 4.678-2.178 6.365-3.799 1.69-1.624 2.944-3.571 3.769-5.837.821-2.269 1.232-4.754 1.232-7.463 0-2.716-.411-5.194-1.232-7.434-.824-2.247-2.078-4.178-3.769-5.804-1.688-1.619-3.809-2.89-6.365-3.797-2.557-.914-5.568-1.371-9.034-1.371H317.487v36.869H330.555c3.466 0 6.477-.455 9.034-1.364zM374.531 30.293v16.259h27.204v4.868h-27.204v15.683h32.139v4.93h-37.002V25.43h37.002v4.863h-32.139zM213.848 149.515h-3.292c0-10.289-1.231-19.872-1.995-24.814l-12.088 14.331-12.066-14.331c-.774 4.942-2.021 14.55-2.021 24.814h-3.29c0-15.098 2.63-28.785 2.652-28.913l.067-.286h3.204l11.455 13.603 11.453-13.603h3.202l.064.286c.021.128 2.655 13.815 2.655 28.913zM225.295 123.42v10.007h17.006v3.043h-17.006v9.964h20.089v3.086h-23.131v-29.138h23.131v3.038h-20.089zM275.304 140.931l.503 2.456c.156.967.267 1.972.333 2.985.086 1.01.131 2.081.131 3.181h3.049c0-4.409-.638-8.599-1.888-12.569-.48-1.609-1.075-3.113-1.752-4.589-.683-1.49-1.471-2.896-2.37-4.257-.748-1.161-1.472-2.194-2.195-3.047-.7-.861-1.338-1.581-1.909-2.176-.571-.571-1.033-1.005-1.402-1.314-.352-.29-.552-.438-.573-.461l-.879-.677-.921.634c-.021.019-.219.176-.569.462-.373.262-.833.676-1.423 1.247-.598.552-1.233 1.252-1.957 2.104-.722.838-1.466 1.847-2.211 3.009-1.762 2.676-3.141 5.618-4.131 8.841-1.226 3.999-1.84 8.27-1.84 12.793h3.052c0-1.1.04-2.171.131-3.181.064-1.014.197-2.019.328-2.985l.44-2.456h18.053zm-17.263-3.076c.393-1.361.828-2.585 1.333-3.68.79-1.738 1.58-3.229 2.395-4.456.857-1.362 1.686-2.48 2.521-3.356.813-.876 1.469-1.558 1.977-2.019.507.461 1.161 1.161 1.954 2.061.81.9 1.666 2.038 2.545 3.399.788 1.253 1.575 2.743 2.393 4.476.476 1.081.939 2.28 1.335 3.575h-16.453zM304.874 121.42c1.945.695 3.597 1.676 4.959 2.942 1.359 1.262 2.411 2.795 3.149 4.604.735 1.805 1.104 3.81 1.104 6.004 0 2.224-.364 4.232-1.086 6.027-.724 1.79-1.767 3.318-3.125 4.585-1.362 1.262-3.021 2.247-4.982 2.938-1.957.69-4.161 1.043-6.608 1.043H287.07v-29.181h11.215c2.447 0 4.645.343 6.589 1.038zm-.94 24.244c1.598-.571 2.929-1.362 3.982-2.376 1.058-1.014 1.841-2.232 2.353-3.646.519-1.414.773-2.976.773-4.671s-.255-3.242-.773-4.646c-.512-1.404-1.295-2.609-2.353-3.623-1.054-1.02-2.385-1.81-3.982-2.381-1.597-.566-3.482-.856-5.648-.856h-8.17v23.057h8.17c2.165-.002 4.051-.287 5.648-.858zM352.512 134.927c0 1.724-.283 3.381-.854 4.966-.568 1.581-1.396 3.042-2.482 4.375-.724.914-1.543 1.733-2.457 2.457-.919.724-1.904 1.352-2.956 1.876-.114.057-.227.104-.336.147-.111.043-.224.09-.336.147-1.666.695-3.403 1.109-5.21 1.247h-.041c-.06 0-.111.01-.169.024a.6795.6795 0 0 1-.167.019h-1.625c-.056 0-.11-.005-.165-.019a.6506.6506 0 0 0-.169-.024h-.043c-.828-.052-1.654-.171-2.456-.352-.808-.187-1.6-.424-2.376-.733-.057-.024-.112-.058-.167-.081-.057-.028-.111-.053-.166-.081h-.043a6.2704 6.2704 0 0 0-.314-.147c-.095-.043-.212-.091-.35-.147a16.7185 16.7185 0 0 1-2.964-1.876 15.1195 15.1195 0 0 1-2.459-2.457c-1.055-1.333-1.869-2.794-2.438-4.375-.569-1.585-.854-3.242-.854-4.966 0-1.833.313-3.585.936-5.251.626-1.671 1.55-3.195 2.773-4.585.724-.861 1.54-1.619 2.435-2.275.907-.652 1.859-1.215 2.861-1.686h.041c0-.028.017-.038.043-.038.025-.028.052-.048.085-.048.024 0 .067-.01.124-.038.026-.028.055-.043.081-.043.028 0 .055-.014.083-.043.026 0 .048-.005.06-.023.02-.01.038-.015.066-.015.055-.028.103-.048.144-.066.043-.015.09-.033.147-.058l.086-.047c.104-.053.204-.076.29-.076.026-.033.057-.048.083-.048.167-.058.278-.096.331-.124h.048c.336-.109.661-.214.995-.314.335-.1.681-.171 1.042-.229h.086c.055-.028.093-.038.124-.038.055 0 .114-.019.167-.042h.169c.055 0 .093-.01.123-.024.026-.01.064-.019.124-.019h.164c.06-.029.127-.043.212-.043h.207c.055-.028.129-.038.21-.038h.212c.055-.033.121-.048.202-.048h.629c.143 0 .232-.01.29-.038h.252c.058.028.136.038.248.038h.669c.083 0 .136.015.169.048h.247c.081 0 .136.01.167.038h.209c.107 0 .179.014.208.043h.207c.057 0 .095.009.126.019.023.015.069.024.121.024h.126c.058.023.112.042.169.042.053 0 .112.01.167.038h.083c.279.058.55.119.813.187.267.071.535.143.813.232l.376.124h.041l.376.124.043.048c.083 0 .179.023.29.076.026.033.069.047.126.047.11.053.193.081.248.081.057.053.114.081.169.081l.169.086.081.038c.028 0 .069.02.126.048l.041.038c.999.471 1.951 1.033 2.856 1.686.897.656 1.732 1.414 2.48 2.275h-.043c1.219 1.39 2.151 2.914 2.795 4.585.637 1.666.956 3.418.956 5.251zm-15.178 12.174c1.697-.086 3.285-.457 4.757-1.128 1.474-.662 2.749-1.548 3.832-2.643 1.086-1.1 1.942-2.361 2.566-3.795.628-1.433.94-2.966.94-4.608 0-1.638-.313-3.181-.94-4.628-.624-1.442-1.48-2.713-2.566-3.813-1.083-1.1-2.358-1.98-3.832-2.646-1.472-.667-3.06-1.038-4.757-1.129h-1.285c-1.671.091-3.242.462-4.713 1.129-1.472.666-2.76 1.547-3.854 2.646-1.104 1.101-1.959 2.371-2.585 3.813-.624 1.447-.938 2.99-.938 4.628 0 1.643.314 3.176.938 4.608.626 1.434 1.48 2.695 2.585 3.795 1.095 1.095 2.383 1.98 3.854 2.643 1.471.671 3.042 1.042 4.713 1.128h.04c.056 0 .103.01.146.02.041.019.091.028.146.028H337.045c.055 0 .109-.01.146-.028.043-.01.088-.02.143-.02zM359.229 120.316h3.293c0 10.284 1.228 19.877 1.994 24.814l12.088-14.331 12.072 14.331c.766-4.938 2.016-14.55 2.016-24.814h3.29c0 15.097-2.628 28.785-2.651 28.913l-.069.286h-3.199l-11.458-13.603-11.452 13.603h-3.201l-.064-.286c-.026-.128-2.659-13.816-2.659-28.913zM412.276 151.424c-6.837 0-11.588-6.661-11.816-6.979l2.694-1.891c.05.071 5.092 7.094 11.257 5.266 2.821-.828 4.764-2.976 4.726-5.213-.045-2.823-3.121-5.299-8.215-6.618-8.672-2.247-9.039-6.951-8.791-8.864.505-3.985 4.718-7.356 9.203-7.356 7.791 0 10.214 5.909 10.316 6.161l-3.063 1.209 1.53-.604-1.521.619c-.069-.172-1.769-4.09-7.263-4.09-2.762 0-5.649 2.176-5.942 4.476-.28 2.228 2.038 4.142 6.352 5.266 9.541 2.466 10.652 7.641 10.686 9.75.064 3.766-2.787 7.156-7.086 8.422-1.06.308-2.086.446-3.067.446zM244.239 105.423c-1.621-.895-2.888-2.113-3.795-3.665-.909-1.553-1.366-3.302-1.366-5.235 0-1.933.457-3.675 1.366-5.228.907-1.554 2.174-2.775 3.795-3.666 1.613-.888 3.418-1.335 5.413-1.335 1.994 0 3.789.443 5.389 1.319 1.6.883 2.861 2.107 3.778 3.668.921 1.563 1.383 3.309 1.383 5.241 0 1.934-.462 3.688-1.383 5.244-.917 1.566-2.179 2.79-3.778 3.666-1.6.881-3.395 1.324-5.389 1.324-1.995.001-3.799-.442-5.413-1.333zm9.727-1.641c1.28-.72 2.287-1.715 3.016-2.985.726-1.276 1.09-2.702 1.09-4.273s-.364-2.992-1.09-4.266c-.729-1.273-1.735-2.271-3.016-2.99-1.286-.716-2.724-1.076-4.313-1.076-1.591 0-3.03.36-4.323 1.076-1.29.72-2.31 1.717-3.047 2.99-.738 1.273-1.107 2.694-1.107 4.266s.369 2.997 1.107 4.273c.737 1.271 1.757 2.266 3.047 2.985 1.293.719 2.732 1.08 4.323 1.08 1.589 0 3.027-.362 4.313-1.08zM267.096 88.306v7.903h10.405v1.838h-10.405v8.539h-2.125V86.468h13.795v1.837h-11.67zM294.596 88.306h-7.065v-1.837h16.263v1.837h-7.069v18.28h-2.128v-18.28zM323.994 86.468v20.117h-2.095v-9.284h-12.588v9.284h-2.128V86.468h2.128v8.967h12.588v-8.967h2.095zM344.773 104.743v1.843H330.55V86.468h13.793v1.837h-11.667v7.159h10.405v1.807h-10.405v7.472h12.097z"/></svg>