<svg xmlns="http://www.w3.org/2000/svg" width="800" height="200" viewBox="-36.801 -41.091 800 200"><path fill="#165A4A" d="M22.397 112.035v-2.637H34.42V7.61c-10.1 0-17.568 1.649-22.4 4.943-3.95 2.528-6.644 8.239-8.065 17.131-.556 3.513-.99 8.346-1.318 14.492H0L1.646 4.979h82.682l1.649 39.198h-2.639c-.551-10.871-1.67-18.499-3.379-22.896-1.698-4.393-3.702-7.295-6.007-8.728C69.12 9.259 61.649 7.61 51.555 7.61v101.788h13.667v2.637H22.397zM95.687 112.035v-2.637h12.028V7.61H95.687V4.979h79.228v34.258h-2.637c0-13.282-2.063-21.876-6.179-25.776-4.115-3.896-12.928-5.85-26.43-5.85h-14.828v47.274h8.732c7.903 0 13.339-1.51 16.304-4.529 2.965-3.025 4.446-8.536 4.446-16.552h2.8V79.09h-2.8c0-8.123-1.481-13.753-4.446-16.879-2.965-3.133-8.401-4.694-16.304-4.694h-8.732v51.88h13.341c8.345 0 14.766-.437 19.27-1.313 4.503-.882 8.179-2.805 11.036-5.768 2.857-2.968 4.749-6.672 5.682-11.115.931-4.449 1.623-10.959 2.063-19.52h2.632l-1.644 40.353H95.687zM277.52 28.529v84.656h-2.635c-3.624 0-6.561-1.15-8.81-3.459-2.254-2.312-5.248-6.698-8.978-13.179l-43.484-74.771h-.656v66.703c0 8.02 1.51 13.505 4.526 16.473 3.022 2.96 8.539 4.446 16.553 4.446h1.152v2.637h-47.105v-2.637c8.017 0 13.616-1.51 16.801-4.529 3.188-3.017 4.78-8.476 4.78-16.39V15.021c-2.965-5.043-8.732-7.572-17.294-7.572v-2.47h17.129c5.266 0 9.25.904 11.943 2.719 2.688 1.81 5.403 5.019 8.149 9.63l43.648 74.941h.988v-63.74c0-8.012-1.512-13.507-4.532-16.47-3.02-2.965-8.536-4.449-16.552-4.449h-1.15V4.979h47.102V7.61c-8.011 0-13.615 1.518-16.795 4.532-3.188 3.022-4.78 8.483-4.78 16.387zM459.497 87.657c-1.21 3.297-1.812 6.508-1.812 9.635 0 3.131.576 5.518 1.731 7.164 1.15 1.65 2.989 2.805 5.512 3.456 3.844.993 8.952 1.486 15.322 1.486h2.794v2.637h-48.747v-2.637c5.816 0 10.239-1.618 13.259-4.859 3.02-3.237 5.68-8.317 7.985-15.234l26.852-77.574c.763-2.415 1.477-4.227 2.138-5.434 1.536-3.076 4.062-4.614 7.577-4.614h.49l33.273 107.715h11.692v2.637h-42.166v-2.637h12.189l-11.364-37.223h-31.455l-5.27 15.482zM480.904 25.4l-15.148 44.138h29.643L481.891 25.4h-.987zM555.949 7.61h-12.023V4.979h42.823V7.61h-13.673v56.166l27.67-31.456c6.37-7.358 9.556-13.066 9.556-17.128 0-2.419-.771-4.203-2.307-5.358-1.537-1.15-3.104-1.807-4.691-1.978-1.596-.158-4.041-.246-7.331-.246V4.979h42.655V7.61c-3.626 0-7.22 1.021-10.784 3.048-3.57 2.029-6.536 4.201-8.896 6.509-2.364 2.303-5.681 5.816-9.962 10.537l-10.377 11.695 38.869 69.999h11.692v2.637h-43.483v-2.637h12.188l-30.63-57.151-14.169 15.976v41.175h13.673v2.637h-42.823v-2.637h12.023V7.61zM692.054 112.201c6.807 0 12.188-2.032 16.136-6.095 3.957-4.061 5.936-9.197 5.936-15.398 0-6.204-1.979-11.172-5.936-14.906-3.948-3.732-8.728-6.729-14.329-8.975-5.596-2.249-11.194-4.641-16.795-7.172-5.599-2.521-10.38-6.144-14.329-10.87-3.95-4.718-5.934-10.537-5.934-17.457 0-9.327 2.743-16.609 8.244-21.821 5.488-5.216 12.951-7.825 22.395-7.825 4.94 0 10.483.936 16.638 2.797 6.143 1.869 9.72 2.802 10.705 2.802 3.183 0 5.041-1.864 5.603-5.599h1.969v36.069h-2.631c-1.646-9.986-4.994-17.979-10.049-23.961-5.048-5.987-11.972-8.98-20.751-8.98-5.932 0-10.683 1.732-14.251 5.193-3.564 3.456-5.349 8.068-5.349 13.83s1.978 10.514 5.928 14.249c3.958 3.735 8.729 6.729 14.329 8.973 5.6 2.25 11.198 4.643 16.804 7.166 5.599 2.528 10.373 6.155 14.326 10.868 3.952 4.728 5.928 10.545 5.928 17.462 0 9.774-3.461 17.68-10.377 23.714-6.915 6.038-15.536 9.063-25.856 9.063-5.054 0-10.404-.933-16.061-2.803-5.654-1.86-8.973-2.799-9.963-2.799-3.185 0-5.052 1.866-5.597 5.602h-1.983l-1.646-40.351h2.643c3.288 24.817 14.707 37.224 34.253 37.224zM437.374 58.59c0 16.232-4.162 29.967-12.495 41.215-8.206 11.056-19.614 16.689-34.258 16.864 1.397-1.074 2.703-2.397 3.699-3.5 2.342-.336 4.459-.969 6.368-1.866 3.076-1.458 5.562-3.635 7.472-6.543 1.913-2.912 3.469-5.972 4.705-9.162 1.232-3.189 2.117-7.129 2.69-11.821.544-4.704.908-8.836 1.091-12.423.173-3.588.249-7.955.249-13.102 0-5.145-.076-9.482-.249-13.011-.183-3.529-.547-7.618-1.091-12.264-.573-4.633-1.458-8.5-2.69-11.57-1.236-3.091-2.792-6.045-4.705-8.912-1.91-2.851-4.396-4.971-7.472-6.367-3.07-1.396-6.689-2.102-10.835-2.102-.221 0-.422 0-.632.013-1.014-1.807-2.282-2.676-3.409-3.058 1.323-.101 2.66-.147 4.041-.147 14.675 0 26.246 5.573 34.76 16.704 8.513 11.146 12.761 24.819 12.761 41.052z"/><path fill="#165A4A" d="M383.829 48.245c10.862-1.983 12.29 4.661 8.671 8.5-3.643 3.851-30.89 11.646-29.17 16.777 1.09 3.162 14.514-2.91 12.925 3.469-1.133 4.633-6.263 7.811-9.715 11.515-2.605 2.808-3.842 7.042-3.019 10.689.677 3.086 2.59 7.07 5.281 8.895 4.056 2.764 9.306 3.78 14.14 3.896 1.339.044 2.681 0 4.002-.116 5.646-.486.866 5.997-4.473 5.703-4.599-.28-15.335-7.453-17.907-9.116-12.305-15.187-16.732-41.7-11.009-66.253 4.585-19.761 14.937-34.612 28.405-40.788 1.352 1.309 1.311 3.397-.089 5.119.397-.047.766-.09 1.148-.104 6.188-.382 7.747 4.381 5.188 6.911-2.719 2.676-6.056 4.485-3.365 5.571 2.706 1.088 4.529-1.82 12.085-.468 7.543 1.367 4.234 11.041-8.158 17.038-12.43 6.015-15.821 14.763-4.94 12.762z"/><path fill="#059347" d="M350.142 38.132c-5.999 23.173-1.913 49.962 9.63 66.648-5.925-5.101-11.78-11.54-17.669-16.261-3.283-2.617-10.679-9.455-4.385-12.938 1.575-.885 7.378.515 7.97-1.207.603-1.722-5.385-6.029-6.367-6.896-4.647-4.116-11.25-6.676-14.411-12.189-1.409-2.425-2.811-6.248.454-7.851 3.777-1.823 8.575 1.292 12.455.571 5.868-1.042 2.823-7.307 1.283-10.643-2.399-5.207-4.504-10.307-3.886-16.116.31-2.985 1.251-7.013 4.472-8.308 4.322-1.719 7.926 3.014 12.058 2.779 6.085-.339 3.381-6.998 6.101-9.557 3.456-3.293 8.967-2.926 10.514-1.559 3.998-3.748 6.232-4.94 10.409-4.529.546.059 1.045.163 1.469.31.013 0 .013 0 .031.016-14.542 5.455-25.216 18.776-30.128 37.73zM384.281 96.68c6.68 4.924 13.216 5.891 15.117 3.722.519-1.104.96-2.226 1.327-3.354.307-.963.587-1.945.794-2.922 1.504-6.822.5-13.409-2.329-16.322-.265-.279-.535-.507-.838-.719-2.635-1.859-7.464-1.601-12.46.471-1.549.615-3.11 1.432-4.636 2.406-.84.537-1.673 1.111-2.474 1.758-.99.775-1.952 1.639-2.852 2.57-.473 2.814 2.429 8.007 8.351 12.39z"/><path fill="#165A4A" d="M381.911 105.955c4.891 2.089 11.491 2.28 14.807-1.279-.519.029-1.041.016-1.607-.019-3.771-.287-8.37-2.13-12.757-5.361-4.812-3.557-8.1-7.861-9.244-11.653-1.355 2.326-1.282 5.217-.352 8.021.938 2.842 2.775 5.594 4.9 7.557.342.308.686.598 1.029.867l.995.705c.68.424 1.433.821 2.229 1.162z"/><path fill="#165A4A" d="M387.746 112.035s-16.297-.615-9.374-8.345c3.552-3.968-1.562-2.194-1.562-2.194s-4.314 4.44-2.316 9.233 11.394 5.835 13.252 1.306z"/></svg>