<?xml version="1.0" encoding="utf-8"?>
<!-- Generator: Adobe Illustrator 23.0.4, SVG Export Plug-In . SVG Version: 6.00 Build 0)  -->
<svg version="1.1" id="Layer_1" xmlns="http://www.w3.org/2000/svg" xmlns:xlink="http://www.w3.org/1999/xlink" x="0px" y="0px"
	 viewBox="0 0 595 956.9" style="enable-background:new 0 0 595 956.9;" xml:space="preserve">
<style type="text/css">
	.st0{fill:#57739B;}
	.st1{fill:#436391;}
</style>
<g id="Group_476" transform="translate(1052.562 -405.402) rotate(67)">
	<path id="Path_308" class="st0" d="M27.3,974.6c37.5-110.7,140.7-82,214.5-51.1c100.2,41.9,121.8-5.5,185.3-72.7
		c107.3-113.5,196.1-107.6,264.3-51.4s52.5,163.5,78.4,222.2c26.7,60.8,63.4,79.9,95.4,93.9c32,14.3,59.3,23.7,66.8,72.3
		c7.3,47.5-6.5,120.4-32.3,179c-25.8,59.1-63.6,104.1-104.8,106.7c-59.3,3.8-100.2-74-147-149c-46.8-76.1-99.6-149.5-181.2-160.9
		c-95.9-13.9-185.2,24.6-253,15.5C111.1,1165.2-10.4,1085.6,27.3,974.6z"/>
	<path id="Path_309" class="st1" d="M95.6,939.5c45-24.8,108.7-3.8,175.5,21c99.9,37.1,145.7-53,179.2-80.3
		c107.4-87.5,173.2-79.9,234-34.1c47.8,36,41.4,129.3,58,177.6c23.1,67.3,42.1,102,96.8,118.9c30,9.2,54.9,17.8,61.8,54.2
		c6.8,35.6,1.8,96.3-22.1,140.3c-23.9,44.3-58.9,78-97,80c-54.9,2.8-109-110-152.4-166.2c-43.3-57-92.2-112.1-167.7-120.6
		c-88.8-10.4-146.3,24.3-240.2,21.9c-56.6-1.4-115.4-37.3-144.2-75.3C39,1026.3,42.9,969.5,95.6,939.5z"/>
</g>
</svg>
