<?xml version="1.0" encoding="utf-8"?>
<!-- Generator: Adobe Illustrator 23.0.4, SVG Export Plug-In . SVG Version: 6.00 Build 0)  -->
<svg version="1.1" id="Layer_1" xmlns="http://www.w3.org/2000/svg" xmlns:xlink="http://www.w3.org/1999/xlink" x="0px" y="0px"
	 viewBox="0 0 772.8 1058.7" style="enable-background:new 0 0 772.8 1058.7;" xml:space="preserve">
<style type="text/css">
	.st0{fill:#57739B;}
	.st1{fill:#436391;}
</style>
<g id="Group_478" transform="translate(777.323 1332.293) rotate(-146)">
	<path id="Path_308" class="st0" d="M242.7,222.4c38.5-151.3,144.4-112,220.1-69.8c102.8,57.3,124.9-7.5,190.2-99.4
		C763.1-101.9,854.2-93.8,924.2-17s53.8,223.3,80.5,303.6c27.4,83.1,65.1,109.2,97.9,128.3c32.8,19.6,60.9,32.3,68.5,98.7
		c7.5,64.9-6.7,164.5-33.2,244.6c-26.5,80.8-65.3,142.2-107.5,145.7c-60.9,5.1-102.8-101.1-150.9-203.6
		c-48-104-102.2-204.3-186-219.9c-98.4-19-190,33.6-259.6,21.2C328.7,482.8,204.1,374.1,242.7,222.4z"/>
	<path id="Path_309" class="st1" d="M312.1,163.6c46.3-35.5,111.7-5.5,180.4,30c102.7,53.1,149.7-75.9,184.2-115
		C787-46.6,854.7-35.7,917.2,29.8c49.2,51.6,42.6,185.2,59.6,254.4c23.7,96.3,43.2,146.1,99.5,170.2c30.8,13.2,56.4,25.4,63.5,77.6
		c7,51,1.9,137.9-22.7,200.9c-24.6,63.5-60.5,111.8-99.7,114.5c-56.4,4-112-157.5-156.6-238.1c-44.5-81.7-94.7-160.5-172.4-172.8
		c-91.2-15-150.4,34.7-246.9,31.4c-58.2-2-118.6-53.4-148.2-107.8C253.9,287.9,257.9,206.6,312.1,163.6z"/>
</g>
</svg>
