<?xml version="1.0" encoding="utf-8"?>
<!-- Generator: Adobe Illustrator 23.0.4, SVG Export Plug-In . SVG Version: 6.00 Build 0)  -->
<svg version="1.1" id="Layer_1" xmlns="http://www.w3.org/2000/svg" xmlns:xlink="http://www.w3.org/1999/xlink" x="0px" y="0px"
	 viewBox="0 0 1155.4 810.3" style="enable-background:new 0 0 1155.4 810.3;" xml:space="preserve">
<style type="text/css">
	.st0{opacity:0.62;}
	.st1{opacity:0.472;fill:#3FD5BC;enable-background:new    ;}
	.st2{opacity:0.305;fill:#4DD3BC;enable-background:new    ;}
</style>
<g id="Group_488" transform="translate(1450.492 611.835) rotate(141)" class="st0">
	<path id="Path_315" class="st1" d="M-92.2,592.2C-35,470,78,502.3,137.9,502.7c59.9,0.3,112.8-17,209.7-91.3
		c163.5-125.3,298.8-118.8,402.8-56.7s80,180.4,119.5,245.2c40.7,67.2,96.6,88.2,145.4,103.7c48.8,15.8,90.4,26.1,101.8,79.7
		c11.2,52.5-10,132.9-49.3,197.6c-39.4,65.3-96.9,114.9-159.7,117.7c-90.4,4.1-152.6-81.6-224-164.5c-71.3-84-151.8-165-276.2-177.6
		c-146.2-15.4-233.3,15.3-316,13.8C-51.7,767.7-149.5,714.7-92.2,592.2z"/>
	<path id="Path_316" class="st2" d="M-6.3,551.6c70.6-28,79.5-21.6,177.6-20.7s155.3-61.5,207.9-92.2
		c168.4-98.5,271.7-90,367.1-38.4c75.1,40.6,65,145.7,91,200.1c36.2,75.8,66,114.9,151.8,133.9c47.1,10.4,86.1,20,96.9,61
		c10.7,40.1,2.8,108.5-34.6,158c-37.5,49.9-92.3,87.9-152.1,90.1c-86.1,3.2-171-123.9-239-187.2C592.4,792,515.7,730,397.2,720.3
		c-139.2-11.8-169.1-1.4-335.3,7.5C-104.3,736.7-89.1,585.5-6.3,551.6z"/>
</g>
</svg>
