<?xml version="1.0" encoding="utf-8"?>
<!-- Generator: Adobe Illustrator 23.0.4, SVG Export Plug-In . SVG Version: 6.00 Build 0)  -->
<svg version="1.1" id="Layer_1" xmlns="http://www.w3.org/2000/svg" xmlns:xlink="http://www.w3.org/1999/xlink" x="0px" y="0px"
	 viewBox="0 0 796.9 580.6" style="enable-background:new 0 0 796.9 580.6;" xml:space="preserve">
<style type="text/css">
	.st0{fill:#C7F3EB;}
	.st1{fill:#B6EFE5;}
</style>
<g id="Group_489" transform="matrix(-0.682, 0.731, -0.731, -0.682, 1454.532, 467.475)">
	<path id="Path_308" class="st0" d="M158.2,772.1c32.4-95.7,121.7-70.9,185.5-44.2c86.7,36.2,105.3-4.7,160.2-62.9
		c92.8-98.1,169.6-93,228.5-44.4c59,48.6,45.4,141.3,67.8,192.1c23.1,52.6,54.8,69.1,82.5,81.2c27.7,12.4,51.3,20.5,57.7,62.5
		c6.3,41.1-5.7,104.1-28,154.8c-22.3,51.1-55,90-90.6,92.2c-51.3,3.2-86.6-64-127.1-128.8c-40.5-65.8-86.1-129.3-156.7-139.1
		c-82.9-12-160.1,21.3-218.7,13.4C230.7,936.9,125.7,868.1,158.2,772.1z"/>
	<path id="Path_309" class="st1" d="M217.3,741.7c38.9-21.5,94-3.3,151.8,18.1c86.4,32.1,126-45.9,154.9-69.4
		c92.8-75.6,149.7-69.1,202.3-29.5c41.4,31.1,35.8,111.8,50.1,153.6c19.9,58.2,36.4,88.2,83.7,102.8c25.9,8,47.5,15.3,53.4,46.8
		c5.9,30.8,1.6,83.3-19.1,121.3c-20.7,38.3-50.9,67.5-83.8,69.1c-47.5,2.4-94.2-95.1-131.7-143.7c-37.4-49.3-79.7-96.9-145-104.3
		c-76.7-9-126.5,21-207.7,18.9c-49-1.2-99.7-32.2-124.7-65.1C168.3,816.8,171.7,767.7,217.3,741.7z"/>
</g>
</svg>
