<?xml version="1.0" encoding="utf-8"?>
<!-- Generator: Adobe Illustrator 23.0.4, SVG Export Plug-In . SVG Version: 6.00 Build 0)  -->
<svg version="1.1" id="Layer_1" xmlns="http://www.w3.org/2000/svg" xmlns:xlink="http://www.w3.org/1999/xlink" x="0px" y="0px"
	 viewBox="0 0 521.3 804" style="enable-background:new 0 0 521.3 804;" xml:space="preserve">
<style type="text/css">
	.st0{fill:#C7F3EB;}
	.st1{fill:#B6EFE5;}
</style>
<g id="Group_516" transform="matrix(-0.588, -0.809, 0.809, -0.588, 444.483, 1666.023)">
	<path id="Path_308" class="st0" d="M697.3,514.9c32.4-89.1,121.4-66,185-41.1c86.4,33.7,105-4.4,159.9-58.5
		c92.5-91.3,169.2-86.6,228-41.4c58.9,45.2,45.3,131.5,67.7,178.8c23,49,54.7,64.3,82.3,75.6c27.6,11.5,51.2,19.1,57.6,58.1
		c6.3,38.3-5.6,96.9-27.9,144.1c-22.3,47.6-54.9,83.8-90.4,85.8c-51.2,3-86.4-59.5-126.8-119.9c-40.4-61.2-85.9-120.3-156.3-129.5
		c-82.7-11.2-159.7,19.8-218.2,12.5C769.6,668.3,664.9,604.3,697.3,514.9z"/>
	<path id="Path_309" class="st1" d="M751.4,483.3c39.4-20.5,95.1-3.2,153.6,17.3c87.4,30.6,127.5-43.8,156.8-66.3
		c93.9-72.2,151.5-65.9,204.7-28.1c41.9,29.7,36.2,106.7,50.7,146.6c20.2,55.5,36.8,84.2,84.7,98.1c26.3,7.6,48,14.6,54.1,44.7
		c5.9,29.4,1.6,79.5-19.3,115.8c-20.9,36.6-51.5,64.4-84.8,66c-48,2.3-95.4-90.7-133.3-137.2c-37.9-47.1-80.6-92.5-146.7-99.5
		c-77.7-8.6-128,20-210.2,18.1c-49.6-1.2-100.9-30.8-126.2-62.1C701.9,555,705.3,508.1,751.4,483.3z"/>
</g>
</svg>
