<?xml version="1.0" encoding="utf-8"?>
<!-- Generator: Adobe Illustrator 23.0.4, SVG Export Plug-In . SVG Version: 6.00 Build 0)  -->
<svg version="1.1" id="Layer_1" xmlns="http://www.w3.org/2000/svg" xmlns:xlink="http://www.w3.org/1999/xlink" x="0px" y="0px"
	 viewBox="0 0 935 1141.9" style="enable-background:new 0 0 935 1141.9;" xml:space="preserve">
<style type="text/css">
	.st0{fill:#B6D2AC;}
	.st1{fill:#85B897;}
</style>
<g id="Group_491" transform="translate(1364.872 2443.752) rotate(-141)">
	<path id="Path_311" class="st0" d="M1232.8,707.5c58.9-137.4,175.4-101.1,237.2-100.7s116.3-19.1,216.2-102.6
		c168.5-140.9,308-133.6,415.2-63.8s82.4,202.9,123.2,275.8c41.9,75.5,99.6,99.2,149.9,116.6c50.3,17.8,93.2,29.4,104.9,89.7
		c11.5,59-10.3,149.4-50.8,222.2c-40.6,73.4-99.9,129.2-164.6,132.4c-93.2,4.7-157.3-91.8-230.9-185
		c-73.5-94.4-156.4-185.6-284.7-199.8c-150.7-17.3-240.5,17.2-325.8,15.5C1274.6,904.8,1173.7,845.3,1232.8,707.5z"/>
	<path id="Path_312" class="st1" d="M1324.9,661.9c72.4-31.4,81.4-24.3,182.1-23.3c100.6,1,159.2-69.1,213-103.7
		c172.6-110.8,278.4-101.2,376.2-43.2c76.9,45.6,66.6,163.8,93.2,225c37.1,85.2,67.6,129.3,155.6,150.6
		c48.3,11.7,88.3,22.5,99.4,68.6c10.9,45.1,2.9,122-35.5,177.7c-38.4,56.2-94.6,98.9-155.9,101.3c-88.3,3.6-175.3-139.3-245-210.6
		c-69.6-72.3-148.2-142-269.7-152.8c-142.7-13.2-173.4-1.6-343.7,8.4S1240.1,699.9,1324.9,661.9z"/>
</g>
</svg>
