<?xml version="1.0" encoding="utf-8"?>
<!-- Generator: Adobe Illustrator 23.0.4, SVG Export Plug-In . SVG Version: 6.00 Build 0)  -->
<svg version="1.1" id="Layer_1" xmlns="http://www.w3.org/2000/svg" xmlns:xlink="http://www.w3.org/1999/xlink" x="0px" y="0px"
	 viewBox="0 0 927.1 486" style="enable-background:new 0 0 927.1 486;" xml:space="preserve">
<style type="text/css">
	.st0{opacity:0.755;}
	.st1{fill:#9FC492;}
	.st2{fill:#5EA276;}
</style>
<g id="Group_478" transform="matrix(-0.978, 0.208, -0.208, -0.978, 1001.958, 521.636)" class="st0">
	<path id="Path_308" class="st1" d="M10,322.5c37.4-82.8,140.3-61.3,213.9-38.2c99.9,31.3,121.4-4.1,184.8-54.4
		c106.9-84.9,195.5-80.4,263.5-38.4s52.3,122.2,78.2,166.1c26.6,45.5,63.2,59.7,95.1,70.2c31.9,10.7,59.2,17.7,66.6,54
		c7.3,35.5-6.5,90-32.2,133.9c-25.8,44.2-63.4,77.8-104.5,79.7c-59.1,2.8-99.9-55.3-146.6-111.4c-46.7-56.9-99.3-111.8-180.7-120.3
		c-95.6-10.4-184.6,18.4-252.2,11.6C93.5,465-27.6,405.5,10,322.5z"/>
	<path id="Path_309" class="st2" d="M76.6,302c45-17.7,108.8-2.7,175.6,14.9c100,26.4,145.8-37.8,179.3-57.2
		c107.5-62.2,173.3-56.8,234.2-24.2c47.9,25.6,41.4,92.1,58,126.5c23.1,47.9,42.1,72.6,96.8,84.6c30,6.6,54.9,12.6,61.8,38.6
		c6.8,25.4,1.8,68.6-22.1,99.9c-23.9,31.6-58.9,55.6-97,56.9c-54.9,2-109.1-78.3-152.5-118.4c-43.3-40.6-92.2-79.8-167.8-85.9
		c-88.8-7.4-146.4,17.3-240.4,15.6c-56.7-1-115.4-26.5-144.3-53.6C20,363.9,23.9,323.4,76.6,302z"/>
</g>
</svg>
