<?xml version="1.0" encoding="utf-8"?>
<!-- Generator: Adobe Illustrator 23.0.4, SVG Export Plug-In . SVG Version: 6.00 Build 0)  -->
<svg version="1.1" id="Layer_1" xmlns="http://www.w3.org/2000/svg" xmlns:xlink="http://www.w3.org/1999/xlink" x="0px" y="0px"
	 viewBox="0 0 743.7 1196.2" style="enable-background:new 0 0 743.7 1196.2;" xml:space="preserve">
<style type="text/css">
	.st0{fill:#B6D2AC;}
	.st1{fill:#84B897;}
</style>
<g id="Group_476" transform="translate(1052.562 -405.402) rotate(67)">
	<path id="Path_308" class="st0" d="M43.6,936.4C90.5,798,219.5,833.9,311.8,872.5c125.3,52.4,152.2-6.8,231.7-90.9
		c134.1-141.9,245.1-134.5,330.4-64.2s65.6,204.3,98,277.7c33.4,76.1,79.3,99.9,119.3,117.4c40,17.9,74.2,29.6,83.5,90.3
		c9.2,59.4-8.2,150.5-40.4,223.8c-32.3,73.9-79.5,130.1-131,133.3c-74.1,4.7-125.2-92.5-183.8-186.3
		c-58.5-95.1-124.5-186.9-226.6-201.2c-119.9-17.4-231.5,30.7-316.2,19.4C148.4,1174.7-3.4,1075.2,43.6,936.4z"/>
	<path id="Path_309" class="st1" d="M129,892.5c56.3-31,135.9-4.8,219.4,26.2c124.9,46.3,182.1-66.3,224-100.4
		c134.2-109.3,216.5-99.8,292.5-42.6c59.8,45,51.8,161.7,72.5,222.1c28.8,84.1,52.6,127.5,121,148.6c37.5,11.5,68.6,22.2,77.2,67.7
		c8.5,44.6,2.3,120.4-27.6,175.4c-29.9,55.4-73.6,97.6-121.2,100c-68.6,3.5-136.3-137.5-190.5-207.8
		c-54.1-71.3-115.2-140.1-209.6-150.8c-110.9-13.1-182.9,30.3-300.3,27.4c-70.8-1.8-144.2-46.6-180.3-94.1
		C58.2,1001,63.1,930,129,892.5z"/>
</g>
</svg>
